<svg width="41" height="40" viewBox="0 0 41 40" fill="none" xmlns="http://www.w3.org/2000/svg">
<g clip-path="url(#clip0_48_491)">
<path d="M0.666748 35.8591C0.666748 25.2867 0.666748 14.7133 0.666748 4.1409C0.690186 4.06849 0.724365 3.99706 0.737061 3.92172C0.955811 2.63112 1.61694 1.61937 2.66675 0.85225C3.30737 0.383562 4.04761 0.167319 4.80737 0C15.3806 0 25.9529 0 36.5261 0C36.5857 0.0225049 36.6443 0.055773 36.7058 0.0655577C37.9998 0.270059 39.0144 0.924658 39.7917 1.96869C40.2742 2.61644 40.4968 3.36791 40.6667 4.1409V35.8591C40.5818 36.184 40.5173 36.5166 40.408 36.8337C39.7302 38.7877 37.9744 39.998 35.8181 39.999C25.7175 40.001 15.6169 39.999 5.51636 39.999C5.41187 39.999 5.30835 39.999 5.20386 39.9941C3.72632 39.9198 2.53394 39.2975 1.61987 38.135C1.09155 37.4638 0.843506 36.6761 0.667725 35.8581L0.666748 35.8591ZM27.0906 36.8748H27.4695C30.2292 36.8748 32.99 36.8748 35.7498 36.8748C36.9353 36.8748 37.5408 36.2603 37.5408 35.0607C37.5408 25.0225 37.5408 14.9834 37.5408 4.94521C37.5408 3.72896 36.9353 3.12524 35.7166 3.12524C25.6785 3.12524 15.6394 3.12524 5.60132 3.12524C4.40503 3.12524 3.79175 3.73385 3.79175 4.91976C3.79175 14.9716 3.79175 25.0225 3.79175 35.0744C3.79175 36.2642 4.40405 36.8738 5.59644 36.8748C10.9998 36.8748 16.4031 36.8748 21.8064 36.8748C21.9431 36.8748 22.0789 36.8748 22.2078 36.8748V24.1301H17.573V19.2808H22.2302C22.2302 19.1115 22.2302 18.9716 22.2302 18.8307C22.2341 17.7505 22.2029 16.6683 22.2498 15.589C22.3923 12.271 24.8191 9.42074 28.0945 8.91194C29.5466 8.68689 31.0515 8.79843 32.533 8.75929C32.5535 8.75929 32.575 8.78473 32.5896 8.79452V13.5724C32.5339 13.5812 32.5085 13.589 32.4832 13.589C31.5066 13.59 30.53 13.5861 29.5535 13.593C28.0457 13.6027 27.0857 14.5558 27.075 16.0577C27.0671 17.0342 27.073 18.0108 27.075 18.9873C27.075 19.0861 27.0935 19.184 27.1052 19.3053H32.697C32.4285 20.9315 32.1638 22.5274 31.8962 24.1487H27.0906V36.8738V36.8748Z" fill="#D9D9D9"/>
</g>
<defs>
<clipPath id="clip0_48_491">
<rect width="40" height="40" fill="white" transform="translate(0.666748)"/>
</clipPath>
</defs>
</svg>
