<svg width="70" height="70" viewBox="0 0 70 70" fill="none" xmlns="http://www.w3.org/2000/svg">
<g clip-path="url(#clip0_48_502)">
<path d="M68.9306 33.713L47.6426 29.7635L59.9014 11.9175C60.2593 11.4001 60.1947 10.6973 59.7505 10.2488C59.3064 9.80474 58.6035 9.74007 58.0818 10.0936L40.2347 22.3517L36.2893 1.07361C36.1728 0.452726 35.6339 0 35 0C34.3661 0 33.8272 0.448414 33.7107 1.07361L29.761 22.3603L11.9182 10.0979C11.3965 9.74438 10.6979 9.80905 10.2495 10.2532C9.80103 10.7016 9.74067 11.4001 10.0942 11.9218L22.3531 29.7678L1.06936 33.713C0.448442 33.8251 0 34.3683 0 34.9978C0 35.6273 0.448442 36.1706 1.06936 36.2827L22.3574 40.2322L10.0986 58.0782C9.74067 58.5956 9.80535 59.2984 10.2538 59.7468C10.5082 59.9969 10.8445 60.1306 11.1809 60.1306C11.4396 60.1306 11.6983 60.053 11.9225 59.9021L29.7696 47.644L33.7194 68.9307C33.8358 69.5516 34.3748 70.0043 35.0086 70.0043C35.6425 70.0043 36.1815 69.5559 36.2979 68.9307L40.2476 47.644L58.0947 59.9021C58.319 60.0573 58.5777 60.1306 58.8364 60.1306C59.1727 60.1306 59.5091 59.9969 59.7635 59.7468C60.2076 59.2984 60.2723 58.5999 59.9144 58.0782L47.6555 40.2322L68.9436 36.2827C69.5645 36.1706 70.0129 35.6273 70.0129 34.9978C70.0129 34.3683 69.5645 33.8251 68.9436 33.713H68.9306ZM53.7483 16.2507L44.8226 29.2374L41.3946 28.5993L40.7564 25.1715L53.744 16.2464L53.7483 16.2507ZM16.2517 16.2507L29.2392 25.1759L28.6011 28.6036L25.1731 29.2418L16.2474 16.255L16.2517 16.2507ZM16.2517 53.7493L25.1774 40.7582L28.6054 41.3964L29.2436 44.8241L16.256 53.7493H16.2517ZM53.7526 53.7493L40.7607 44.8241L41.3989 41.3964L44.8269 40.7582L53.7526 53.7493ZM45.1675 38.0333H45.1546L40.032 38.9861C39.5017 39.0853 39.0834 39.5035 38.9842 40.0339L38.0313 45.1605L34.9957 61.5146L31.0115 40.0339C30.9123 39.4992 30.494 39.0853 29.9637 38.9861L24.8411 38.0376H24.8281L8.47727 35.0022L29.9593 31.0139C30.4897 30.9147 30.908 30.4965 31.0071 29.9661L31.9558 24.8439L34.9914 8.48968L38.027 24.8395L38.9756 29.9661C39.0748 30.5008 39.493 30.9147 40.0234 31.0139L61.5055 35.0022L45.1589 38.0333H45.1675Z" fill="#292929"/>
</g>
<defs>
<clipPath id="clip0_48_502">
<rect width="70" height="70" fill="white"/>
</clipPath>
</defs>
</svg>
