<svg width="40" height="40" viewBox="0 0 40 40" fill="none" xmlns="http://www.w3.org/2000/svg">
<g clip-path="url(#clip0_48_498)">
<path d="M26.0536 40.0001H13.9969C13.752 39.9786 13.5072 39.9444 13.2614 39.9375C11.6701 39.8945 10.0818 39.8319 8.52277 39.4564C5.20404 38.6566 2.73924 36.7792 1.2723 33.6785C0.363542 31.758 0.0913067 29.6919 0.0697629 27.5954C0.0247167 23.2842 -0.0144538 18.9729 0.00611073 14.6617C0.0159034 12.5945 0.0286338 10.5157 0.530996 8.48668C1.40646 4.95282 3.47075 2.41926 6.87859 1.03857C8.70883 0.296399 10.6399 0.0881221 12.5906 0.0666099C16.6605 0.0235855 20.7313 -0.0116163 24.8011 0.0040289C26.9378 0.0118515 29.0863 -0.000860207 31.1908 0.456763C35.0765 1.30258 37.7979 3.52421 39.1659 7.2996C39.823 9.11249 39.9787 11.0075 39.9846 12.9133C39.9993 17.5247 40.012 22.1362 39.9748 26.7466C39.964 28.0569 39.8602 29.378 39.6575 30.6726C39.2433 33.3225 38.0495 35.5794 35.9529 37.3072C33.9082 38.991 31.4914 39.6677 28.8993 39.8417C27.9514 39.9053 27.0015 39.9473 26.0526 39.9991L26.0536 40.0001ZM19.9997 36.4633V36.4017C21.0583 36.4017 22.1159 36.433 23.1716 36.3949C25.4513 36.3137 27.7467 36.3401 30.0029 36.0595C33.0856 35.6752 35.1734 33.9073 35.9333 30.8447C36.235 29.6322 36.3427 28.3483 36.3642 27.0947C36.4328 23.0319 36.4494 18.967 36.4249 14.9032C36.4151 13.2917 36.3368 11.6705 36.1331 10.0727C35.7228 6.86251 33.7124 4.68587 30.5376 4.05419C29.1666 3.78138 27.7428 3.69924 26.3405 3.67577C22.8318 3.6171 19.3211 3.62786 15.8124 3.63959C13.8049 3.64644 11.7925 3.62004 9.80365 3.9701C6.76695 4.50399 4.68503 6.42933 4.0632 9.45278C3.79488 10.7562 3.70773 12.1115 3.67933 13.4462C3.61078 16.6496 3.58532 19.8549 3.62155 23.0583C3.64701 25.3219 3.70675 27.5925 3.92415 29.8434C4.13665 32.0435 5.17565 33.8574 7.10773 35.0543C8.41407 35.8629 9.88199 36.1866 11.395 36.2404C14.2622 36.343 17.1325 36.391 20.0007 36.4623L19.9997 36.4633Z" fill="#D9D9D9"/>
<path d="M9.72119 19.9819C9.73392 14.3027 14.3707 9.69124 20.0417 9.71764C25.7468 9.74404 30.3523 14.3653 30.3141 20.0249C30.2759 25.71 25.6812 30.2843 20.0191 30.2755C14.3325 30.2667 9.70944 25.6465 9.72217 19.9829L9.72119 19.9819ZM13.3494 19.9956C13.3494 23.684 16.3195 26.6497 20.0133 26.6536C23.711 26.6566 26.682 23.7016 26.6918 20.0103C26.7026 16.3072 23.7198 13.3278 20.0084 13.3327C16.3156 13.3376 13.3484 16.3062 13.3494 19.9956Z" fill="#D9D9D9"/>
<path d="M33.1207 9.2894C33.1295 10.6144 32.0797 11.689 30.7616 11.7037C29.4249 11.7183 28.3311 10.6496 28.3243 9.32265C28.3174 7.99867 29.3652 6.93186 30.6892 6.91523C32.0396 6.89861 33.1119 7.94586 33.1207 9.2894Z" fill="#D9D9D9"/>
</g>
<defs>
<clipPath id="clip0_48_498">
<rect width="40" height="40" fill="white"/>
</clipPath>
</defs>
</svg>
