<svg width="50" height="40" viewBox="0 0 50 40" fill="none" xmlns="http://www.w3.org/2000/svg">
<g clip-path="url(#clip0_48_493)" filter="url(#filter0_d_48_493)">
<path d="M41.8016 39.9997H8.86747C8.78061 39.9723 8.69678 39.9362 8.6079 39.9186C6.33943 39.472 4.67697 37.5899 4.67495 35.3912C4.66485 25.1334 4.66384 14.8767 4.67495 4.61895C4.67798 2.10459 6.84039 0.0104396 9.44014 0.00750798C20.0391 -0.0042185 30.6391 -0.00324129 41.238 0.0104396C42.7823 0.012394 44.0297 0.672986 44.9952 1.83977C45.5376 2.49548 45.7841 3.27236 45.9992 4.06487V35.9374C45.9709 36.0205 45.9356 36.1026 45.9154 36.1876C45.5093 37.93 44.4488 39.1222 42.7177 39.7446C42.4207 39.8512 42.1077 39.9156 41.8016 39.9997ZM42.7702 19.9982C42.7702 14.9734 42.7702 9.94961 42.7702 4.92481C42.7702 3.7336 42.141 3.12773 40.9068 3.12773C30.5229 3.12773 20.1391 3.12773 9.75526 3.12773C8.52407 3.12773 7.89787 3.73457 7.89787 4.9297C7.89787 14.9783 7.89787 25.0279 7.89787 35.0765C7.89787 36.2677 8.52609 36.8746 9.76031 36.8746C20.1441 36.8746 30.528 36.8746 40.9118 36.8746C42.141 36.8746 42.7692 36.2638 42.7692 35.0716C42.7692 30.0468 42.7692 25.023 42.7692 19.9982H42.7702Z" fill="#D9D9D9"/>
<path d="M38.72 33.0277H33.164C33.164 32.8694 33.164 32.7296 33.164 32.5899C33.163 29.6739 33.1691 26.7579 33.1529 23.8419C33.1499 23.2849 33.0923 22.723 32.9963 22.1738C32.6812 20.3728 31.4187 19.5149 29.5462 19.7963C28.01 20.0269 27.1111 20.8741 26.806 22.4602C26.6869 23.0826 26.6374 23.7256 26.6333 24.3608C26.6151 27.0941 26.6252 29.8283 26.6252 32.5615C26.6252 32.7042 26.6252 32.8459 26.6252 33.0169H21.1611V15.4125H26.6091V17.7412C26.8666 17.4197 27.0434 17.1657 27.2545 16.9419C28.3554 15.7731 29.7664 15.2239 31.3611 15.1077C32.7549 15.006 34.1316 15.1321 35.4264 15.6979C37.0545 16.4093 37.9403 17.7129 38.3049 19.336C38.5372 20.3719 38.6917 21.4448 38.7079 22.5032C38.7594 25.939 38.7311 29.3758 38.7332 32.8127C38.7332 32.8752 38.7251 32.9387 38.72 33.0277Z" fill="#D9D9D9"/>
<path d="M11.9629 15.4086H17.5623V33.0276H11.9629V15.4086Z" fill="#D9D9D9"/>
<path d="M14.8365 12.9694C13.0164 12.9675 11.5307 11.5271 11.5317 9.76322C11.5327 8.00034 13.0205 6.56482 14.8435 6.5658C16.6656 6.56677 18.1493 8.0062 18.1483 9.77103C18.1462 11.5339 16.6585 12.9714 14.8365 12.9694Z" fill="#D9D9D9"/>
</g>
<defs>
<filter id="filter0_d_48_493" x="0.666748" y="0" width="49.3333" height="48" filterUnits="userSpaceOnUse" color-interpolation-filters="sRGB">
<feFlood flood-opacity="0" result="BackgroundImageFix"/>
<feColorMatrix in="SourceAlpha" type="matrix" values="0 0 0 0 0 0 0 0 0 0 0 0 0 0 0 0 0 0 127 0" result="hardAlpha"/>
<feOffset dy="4"/>
<feGaussianBlur stdDeviation="2"/>
<feComposite in2="hardAlpha" operator="out"/>
<feColorMatrix type="matrix" values="0 0 0 0 0 0 0 0 0 0 0 0 0 0 0 0 0 0 0.25 0"/>
<feBlend mode="normal" in2="BackgroundImageFix" result="effect1_dropShadow_48_493"/>
<feBlend mode="normal" in="SourceGraphic" in2="effect1_dropShadow_48_493" result="shape"/>
</filter>
<clipPath id="clip0_48_493">
<rect width="41.3333" height="40" fill="white" transform="translate(4.66675)"/>
</clipPath>
</defs>
</svg>
