<svg width="203" height="46" viewBox="0 0 203 46" fill="none" xmlns="http://www.w3.org/2000/svg">
<path d="M30.6337 45.8108C18.4455 45.8108 8.52637 35.5413 8.52637 22.9225C8.52637 10.3037 18.4455 0.0341797 30.6337 0.0341797C42.8219 0.0341797 52.741 10.3037 52.741 22.9225C52.741 35.5413 42.8219 45.8108 30.6337 45.8108ZM30.6337 0.404574C18.6415 0.404574 8.88412 10.5067 8.88412 22.9225C8.88412 35.3383 18.6415 45.4404 30.6337 45.4404C42.6258 45.4404 52.3832 35.3383 52.3832 22.9225C52.3832 10.5067 42.6258 0.404574 30.6337 0.404574Z" fill="#4242E9"/>
<path d="M60.3472 16.7121C59.7885 15.0174 59.0387 13.886 58.3477 13.6982C58.3134 13.6881 58.2791 13.6932 58.2448 13.7084C57.7351 13.9874 57.2303 14.2969 56.6912 14.6267C54.8632 15.743 52.9862 16.91 50.9622 16.8339C49.0999 16.773 45.9733 14.1752 43.9051 12.4551C43.0916 11.7803 42.4496 11.2475 42.0968 11.0446C41.0235 10.4256 39.4013 9.55793 37.789 8.9237H37.7841L37.6959 8.8831C35.6229 8.01039 33.1774 6.99562 32.6089 7.04128C32.011 7.0768 30.1291 7.38631 29.1833 7.90892C28.8402 7.89877 28.4972 7.88355 28.1737 7.8734C26.4928 7.81759 25.0421 7.76685 24.7579 7.75163C24.6991 7.74148 24.6452 7.78207 24.6207 7.83788C24.4001 8.39094 24.4687 8.99473 24.8069 9.49197C25.1696 10.0247 25.8018 10.3698 26.6006 10.5169C26.1644 10.8822 25.6057 11.2678 25.2137 11.5367C24.802 11.8209 24.7089 11.8868 24.6697 11.9427C24.606 12.0391 24.6648 12.1608 24.7138 12.2369C24.8804 12.516 25.5224 13.1807 26.5957 13.1807C26.6888 13.1807 26.7868 13.1756 26.8897 13.1604C27.3112 13.3989 27.8846 13.5409 28.458 13.5409C28.9774 13.5409 29.492 13.4242 29.8792 13.1502C30.5849 12.653 31.565 11.9731 31.766 11.8361C32.1678 11.8564 32.5746 11.8767 32.9716 11.897C34.0105 11.9477 34.9956 11.9934 35.2308 12.0492C35.7797 12.1761 36.5393 13.2264 38.2056 15.5248L38.2644 15.606C37.1078 14.8957 34.8878 13.8555 33.3881 14.0788C32.6236 14.1904 32.1874 14.4289 32.0551 14.8043C31.8738 15.3371 32.408 15.9358 32.5844 16.1337C32.8539 16.4381 33.937 16.8745 35.1916 17.3768C35.9659 17.6863 36.7598 18.006 37.3675 18.3002C38.0781 18.6453 38.975 19.726 39.9257 20.8727C41.0186 22.1919 42.1458 23.5517 43.2974 24.2316C44.5716 24.9826 45.4293 25.2312 46.2232 25.2312C46.8162 25.2312 47.3798 25.0942 48.0512 24.9267C48.2521 24.947 48.4677 24.9572 48.6981 24.9572C51.1044 24.9572 54.8093 23.9678 57.8429 23.161C58.7544 22.9175 59.617 22.6892 60.3717 22.5065C60.4011 22.4963 60.4305 22.4811 60.4501 22.4558C61.3077 21.2938 61.0137 18.7315 60.3472 16.707V16.7121Z" fill="white"/>
<path d="M48.698 25.0028C48.4579 25.0028 48.2373 24.9927 48.0266 24.9724C45.3361 24.7136 41.2832 19.8376 38.3525 15.7937L38.181 15.5552C36.5196 13.2619 35.76 12.2166 35.2258 12.0898C34.9906 12.034 34.0104 11.9883 32.9666 11.9376C31.2954 11.8564 29.3988 11.7651 28.8843 11.5875C28.3893 11.415 27.9531 11.0344 27.664 10.6285C26.3457 10.6843 25.292 10.2733 24.7725 9.51225C24.4246 9.00486 24.356 8.39092 24.5814 7.82264C24.6108 7.75161 24.6794 7.69579 24.7529 7.71102C25.0323 7.72624 26.4731 7.77698 28.1393 7.83279C30.3839 7.9089 33.1822 8.0053 34.574 8.06619C36.8529 8.16767 40.2736 9.9486 42.1065 11.004C42.4643 11.212 43.1063 11.7448 43.9198 12.4196C45.9879 14.1346 49.1097 16.7324 50.9573 16.7882C52.9568 16.8542 54.8436 15.7024 56.6617 14.5861C57.2008 14.2563 57.7056 13.9468 58.2153 13.6678C58.2545 13.6475 58.2986 13.6424 58.3427 13.6525C59.0484 13.8453 59.8031 14.9819 60.3667 16.6918C61.0381 18.7264 61.3273 21.304 60.4647 22.476C60.4402 22.5115 60.4059 22.5318 60.3618 22.542C59.612 22.7247 58.7495 22.953 57.8379 23.1965C54.8044 24.0033 51.0994 24.9927 48.6833 24.9927L48.698 25.0028ZM27.9188 10.3697C28.1491 10.7198 28.5314 11.0801 29.0019 11.2424C29.4674 11.4048 31.4179 11.4961 32.9862 11.5722C34.133 11.6281 35.0396 11.6737 35.3042 11.7346C35.9658 11.8868 36.6471 12.8255 38.4652 15.3371L38.6368 15.5755C42.7191 21.2076 46.0614 24.4143 48.0609 24.6071C50.3496 24.8252 54.4613 23.7293 57.7693 22.8515C58.6563 22.613 59.4993 22.3898 60.2393 22.2071C60.9744 21.1213 60.6608 18.6655 60.0531 16.8186C59.563 15.332 58.8965 14.2563 58.3378 14.0382C57.8575 14.3071 57.3724 14.6014 56.8627 14.9109C54.9955 16.0525 53.0744 17.2296 50.9622 17.1637C48.997 17.1028 45.8164 14.4593 43.7139 12.7139C42.9151 12.0492 42.2829 11.5215 41.9497 11.3338C40.1413 10.2936 36.7794 8.53806 34.574 8.44166C33.1871 8.38077 30.3888 8.28437 28.1442 8.20826C26.5956 8.15752 25.3361 8.11185 24.8803 8.09156C24.7529 8.50762 24.8215 8.94397 25.0715 9.30929C25.4929 9.92831 26.3555 10.2733 27.4581 10.2733C27.3797 10.1059 27.3356 9.94353 27.3258 9.80146C27.3258 9.74057 27.3454 9.68476 27.3895 9.64417C27.8502 9.25348 29.0558 9.2687 30.4525 9.289C31.021 9.29407 31.614 9.30422 32.1678 9.28392C34.4368 9.20274 36.1129 9.44629 36.8627 9.68476C37.6762 9.94353 40.1511 12.0492 40.254 12.1354C40.3275 12.2014 40.3422 12.3181 40.2785 12.3942C40.2148 12.4703 40.1021 12.4855 40.0286 12.4196C39.3278 11.8209 37.3773 10.2327 36.7598 10.0349C36.0345 9.80653 34.4025 9.56806 32.1825 9.64924C31.614 9.66954 31.021 9.65939 30.4476 9.65431C29.3106 9.63909 28.1344 9.62387 27.6983 9.87249C27.7277 10.0044 27.7963 10.1617 27.8943 10.3241C27.9041 10.3393 27.9139 10.3545 27.9237 10.3697H27.9188Z" fill="#4242E9"/>
<path d="M26.5957 13.2264C25.5028 13.2264 24.851 12.5516 24.6795 12.2624C24.6501 12.2116 24.557 12.0543 24.6403 11.9224C24.6795 11.8564 24.7677 11.7956 25.1941 11.5013C25.6596 11.1816 26.3555 10.7047 26.8064 10.2886C26.8799 10.2227 26.9926 10.2277 27.0564 10.3038C27.1201 10.3799 27.1152 10.4966 27.0417 10.5626C26.5761 10.9939 25.8606 11.481 25.3901 11.8057C25.2382 11.9123 25.0813 12.0188 24.9931 12.0848C25.15 12.3385 25.8165 12.9676 26.8995 12.8357C28.2619 12.6683 29.4969 11.4252 29.5116 11.4099C29.5802 11.3389 29.693 11.3389 29.7616 11.4099C29.8302 11.481 29.8302 11.5977 29.7616 11.6687C29.7077 11.7245 28.4286 13.0133 26.9436 13.196C26.826 13.2112 26.7133 13.2162 26.6006 13.2162L26.5957 13.2264Z" fill="#4242E9"/>
<path d="M46.2426 25.2769C45.4389 25.2769 44.5567 25.0334 43.2825 24.2774C42.126 23.5924 40.9939 22.2275 39.901 20.9083C38.9552 19.7667 38.0583 18.6859 37.3526 18.346C36.7498 18.0517 35.951 17.732 35.1767 17.4225C33.7163 16.839 32.8145 16.4585 32.5548 16.1693C32.3734 15.9663 31.8295 15.3524 32.0206 14.7993C32.1578 14.4086 32.6038 14.16 33.383 14.0484C35.4168 13.7592 38.7542 15.7481 39.0483 16.1439C39.1071 16.2251 39.0924 16.3418 39.014 16.4027C38.9356 16.4636 38.8228 16.4483 38.764 16.3672C38.5582 16.0881 35.3776 14.1245 33.432 14.4137C32.8096 14.505 32.4372 14.6826 32.3538 14.9262C32.2754 15.1545 32.4323 15.4894 32.8145 15.9207C33.035 16.1693 34.2406 16.6513 35.3041 17.0775C36.0833 17.3921 36.887 17.7117 37.4996 18.0111C38.274 18.3866 39.1953 19.4927 40.1656 20.6698C41.1899 21.9078 42.3514 23.3082 43.4541 23.9577C45.5761 25.216 46.4337 25.0029 47.9971 24.6122C48.0951 24.5869 48.1882 24.6477 48.2127 24.7492C48.2372 24.8507 48.1784 24.9471 48.0804 24.9725C47.4188 25.1348 46.8503 25.2769 46.2426 25.2769Z" fill="#4242E9"/>
<path d="M37.7301 9.23828C37.7301 9.23828 37.686 9.23828 37.6615 9.22306L37.5782 9.18754C34.6671 7.95966 33.0009 7.35587 32.6284 7.36602C32.0599 7.39646 30.178 7.71104 29.3008 8.21336C29.2126 8.2641 29.1048 8.22858 29.0607 8.14232C29.0117 8.05099 29.046 7.93937 29.1293 7.8937C30.0702 7.3508 32.0011 7.03621 32.6088 7.0007C33.1773 6.96011 35.6375 7.96981 37.7105 8.84759L37.7938 8.88311C37.8869 8.9237 37.9261 9.03025 37.8918 9.12158C37.8624 9.19262 37.7987 9.23828 37.7252 9.23828H37.7301Z" fill="#4242E9"/>
<path d="M28.4578 13.5867C27.8599 13.5867 27.2571 13.4345 26.8258 13.1808C26.7425 13.1301 26.7131 13.0184 26.7572 12.9271C26.8062 12.8409 26.9141 12.8104 27.0023 12.8561C27.7031 13.2721 29.0067 13.3685 29.6977 12.8814C30.4867 12.3284 31.6237 11.5369 31.6237 11.5369L31.8197 11.8413C31.8197 11.8413 30.6876 12.6278 29.8986 13.1808C29.5066 13.4548 28.9822 13.5766 28.4578 13.5766V13.5867Z" fill="#4242E9"/>
<path d="M36.206 36.693C35.8433 36.1602 35.216 35.8152 34.4123 35.6681C34.8485 35.3027 35.4072 34.9171 35.7992 34.6482C36.2109 34.3641 36.304 34.2981 36.3432 34.2423C36.4069 34.1459 36.3481 34.0292 36.304 33.948C36.1227 33.6436 35.3827 32.8825 34.1232 33.0195C33.3195 32.5679 31.9472 32.4614 31.1337 33.0246C30.428 33.5218 29.4479 34.2017 29.2469 34.3387C28.8451 34.3184 28.4383 34.2981 28.0413 34.2778C26.9975 34.2271 26.0173 34.1814 25.7772 34.1256C25.2283 33.9987 24.4687 32.9485 22.8024 30.65L22.7387 30.5637C23.7875 31.2081 25.7135 32.1265 27.1837 32.1265C27.3307 32.1265 27.4778 32.1163 27.615 32.096C28.3795 31.9844 28.8157 31.7459 28.948 31.3705C29.1293 30.8377 28.5951 30.239 28.4187 30.0411C28.1492 29.7367 27.0661 29.3003 25.8115 28.798C25.0421 28.4885 24.2433 28.1688 23.6356 27.8746C22.9249 27.5295 22.0281 26.4488 21.0774 25.3021C19.9845 23.9829 18.8524 22.6231 17.7056 21.9432C15.4856 20.629 14.5251 20.8574 12.9519 21.2481C10.6044 21.035 6.47801 22.1309 3.1602 23.0138C2.24866 23.2573 1.38613 23.4856 0.636313 23.6683C0.606908 23.6785 0.577504 23.6937 0.557901 23.719C-0.299732 24.881 -0.00568623 27.4433 0.660817 29.4678C1.2195 31.1624 1.96932 32.2939 2.66032 32.4817C2.69463 32.4918 2.72894 32.4867 2.76324 32.4715C3.27292 32.1924 3.7777 31.8829 4.31678 31.5531C6.14476 30.4369 8.02665 29.28 10.0458 29.346C11.9081 29.4069 15.0347 32.0047 17.1029 33.7248C17.9164 34.3996 18.5584 34.9323 18.9112 35.1404C19.9845 35.7594 21.6066 36.627 23.2239 37.2613L23.3121 37.3018C25.3508 38.1644 27.7571 39.1437 28.3697 39.1437C28.3795 39.1437 28.3893 39.1437 28.3991 39.1437C28.997 39.1082 30.8789 38.7986 31.8247 38.276C32.1776 38.2862 32.5206 38.3014 32.8539 38.3116C34.525 38.3674 35.9708 38.4181 36.2501 38.4333H36.255C36.3089 38.4333 36.3628 38.3978 36.3824 38.3471C36.603 37.794 36.5343 37.1902 36.1962 36.693H36.206Z" fill="white"/>
<path d="M36.2649 38.4789H36.2551C35.9757 38.4637 34.5349 38.413 32.8687 38.3572C30.6241 38.281 27.8258 38.1846 26.434 38.1238C24.1551 38.0223 20.7344 36.2413 18.9015 35.186C18.5437 34.9779 17.9017 34.4452 17.0882 33.7704C15.0201 32.0554 11.8983 29.4576 10.0507 29.4017C8.05613 29.3358 6.16444 30.4926 4.34136 31.6038C3.80227 31.9336 3.29749 32.2431 2.78782 32.5222C2.74861 32.5425 2.7045 32.5476 2.6604 32.5374C1.95469 32.3446 1.19997 31.208 0.636384 29.4981C-0.0350196 27.4635 -0.324164 24.886 0.538369 23.7139C0.562873 23.6784 0.597178 23.6581 0.641285 23.648C1.3911 23.4653 2.25363 23.237 3.16517 22.9934C6.49769 22.1055 10.6437 21.0045 12.9912 21.2277C15.6817 21.4865 19.7346 26.3625 22.6653 30.4064L22.8417 30.6448C24.5031 32.9382 25.2578 33.9835 25.792 34.1052C26.0272 34.1611 27.0074 34.2067 28.0512 34.2575C29.7224 34.3386 31.619 34.43 32.1335 34.6076C32.6285 34.7801 33.0647 35.1606 33.3538 35.5665C34.677 35.5158 35.7258 35.9217 36.2453 36.6828C36.5932 37.1902 36.6618 37.8041 36.4364 38.3724C36.407 38.4434 36.3433 38.484 36.2698 38.484L36.2649 38.4789ZM9.88901 29.0263C9.94782 29.0263 10.0017 29.0263 10.0605 29.0263C12.0257 29.0872 15.2063 31.7307 17.3088 33.4761C18.1076 34.1408 18.7398 34.6684 19.073 34.8562C20.8814 35.8963 24.2384 37.6519 26.4487 37.7483C27.8356 37.8092 30.6339 37.9056 32.8785 37.9817C34.4271 38.0324 35.6866 38.0781 36.1424 38.0984C36.2698 37.6823 36.2012 37.246 35.9512 36.8807C35.5298 36.2616 34.6672 35.9166 33.5646 35.9166C33.643 36.0841 33.6871 36.2464 33.6969 36.3885C33.6969 36.4494 33.6773 36.5052 33.6332 36.5458C33.1725 36.9365 31.9669 36.9212 30.5702 36.901C30.0017 36.8959 29.4087 36.8857 28.85 36.906C26.581 36.9872 24.9049 36.7437 24.1551 36.5052C23.3416 36.2464 20.8667 34.1408 20.7638 34.0545C20.6903 33.9885 20.6756 33.8718 20.7393 33.7957C20.803 33.7196 20.9157 33.7044 20.9892 33.7704C21.69 34.3691 23.6405 35.9572 24.258 36.1551C24.9833 36.3834 26.6153 36.6219 28.8353 36.5407C29.4038 36.5204 29.9968 36.5255 30.5702 36.5356C31.7072 36.5509 32.8834 36.5661 33.3195 36.3175C33.2901 36.1855 33.2215 36.0282 33.1235 35.8659C33.1137 35.8507 33.1039 35.8354 33.0941 35.8202C32.8638 35.4701 32.4815 35.1099 32.011 34.9475C31.5455 34.7851 29.5949 34.6938 28.0267 34.6177C26.8799 34.5619 25.9733 34.5162 25.7087 34.4553C25.047 34.3031 24.3658 33.3645 22.5526 30.858L22.3761 30.6195C18.2938 24.9875 14.9515 21.7808 12.952 21.588C10.6633 21.3647 6.5516 22.4657 3.24359 23.3435C2.35655 23.582 1.51362 23.8052 0.773605 23.9879C0.0384918 25.0737 0.35214 27.5295 0.959834 29.3764C1.44991 30.863 2.11641 31.9387 2.6751 32.1569C3.15537 31.8879 3.64055 31.5937 4.15023 31.2842C5.96351 30.173 7.84049 29.0263 9.87921 29.0263H9.88901Z" fill="#4242E9"/>
<path d="M34.0938 35.9472C34.0448 35.9472 33.9958 35.9269 33.9615 35.8864C33.8978 35.8102 33.9027 35.6935 33.9762 35.6276C34.4418 35.1963 35.1573 34.7041 35.6278 34.3845C35.7797 34.2779 35.9365 34.1714 36.0247 34.1054C35.8679 33.8517 35.2014 33.2276 34.1183 33.3545C32.7559 33.5219 31.5209 34.765 31.5062 34.7802C31.4376 34.8513 31.3249 34.8513 31.2563 34.7802C31.1877 34.7092 31.1877 34.5925 31.2563 34.5215C31.3102 34.4657 32.5893 33.1769 34.0742 32.9942C35.3778 32.8319 36.1472 33.6183 36.3335 33.938C36.3629 33.9887 36.456 34.146 36.3727 34.2779C36.3335 34.3439 36.2453 34.4048 35.8189 34.6991C35.3533 35.0187 34.6574 35.4957 34.2065 35.9117C34.1722 35.9422 34.1281 35.9574 34.0889 35.9574L34.0938 35.9472Z" fill="#4242E9"/>
<path d="M27.1984 32.1773C25.1597 32.1773 22.2437 30.4217 21.9693 30.0513C21.9105 29.9701 21.9252 29.8534 22.0036 29.7925C22.082 29.7316 22.1947 29.7469 22.2535 29.828C22.4594 30.1071 25.64 32.0656 27.5856 31.7815C28.2079 31.6902 28.5804 31.5126 28.6637 31.269C28.7421 31.0407 28.5853 30.7058 28.203 30.2746C27.9825 30.0259 26.7769 29.5439 25.7135 29.1177C24.9342 28.8031 24.1305 28.4835 23.5179 28.1841C22.7436 27.8086 21.8272 26.7025 20.8519 25.5254C19.8277 24.2874 18.6662 22.887 17.5635 22.2375C15.4415 20.9792 14.5838 21.1974 13.0205 21.583C12.9274 21.6083 12.8294 21.5475 12.8049 21.446C12.7804 21.3496 12.8392 21.2481 12.9372 21.2227C14.476 20.8422 15.4954 20.5885 17.7399 21.9179C18.8965 22.6028 20.0286 23.9677 21.1215 25.2869C22.0673 26.4285 22.9641 27.5093 23.6698 27.8492C24.2726 28.1435 25.0715 28.4632 25.8458 28.7727C27.3062 29.3562 28.2079 29.7367 28.4677 30.0259C28.649 30.2289 29.193 30.8428 29.0019 31.3959C28.8646 31.7866 28.4187 32.0352 27.6395 32.1468C27.5022 32.1671 27.3552 32.1773 27.2033 32.1773H27.1984Z" fill="#4242E9"/>
<path d="M28.3796 39.1893C27.7622 39.1893 25.351 38.205 23.3074 37.3424L23.2241 37.3069C23.1309 37.2663 23.0917 37.1598 23.126 37.0685C23.1652 36.972 23.2682 36.9264 23.3564 36.967L23.4397 37.0025C26.3507 38.2304 28.017 38.8342 28.3895 38.824C28.9579 38.7936 30.8398 38.479 31.7171 37.9767C31.8053 37.9259 31.9131 37.9615 31.9572 38.0477C32.0062 38.139 31.9719 38.2507 31.8886 38.2963C30.9476 38.8392 29.0167 39.1538 28.4091 39.1893C28.3993 39.1893 28.3894 39.1893 28.3796 39.1893Z" fill="#4242E9"/>
<path d="M29.3891 34.6483L29.1931 34.3439C29.1931 34.3439 30.3252 33.5574 31.1142 33.0044C31.9522 32.4209 33.3784 32.5376 34.187 33.0145C34.2703 33.0652 34.2997 33.1769 34.2556 33.2682C34.2066 33.3545 34.0988 33.3849 34.0106 33.3392C33.3098 32.9232 32.0062 32.8268 31.3151 33.3139C30.5261 33.8669 29.3891 34.6584 29.3891 34.6584V34.6483Z" fill="#4242E9"/>
<path d="M30.9916 29.7063C30.8789 29.7063 30.7858 29.6251 30.7662 29.5084L29.8644 24.4751L25.0029 23.5415C24.8951 23.5212 24.8118 23.4197 24.8118 23.3081C24.8118 23.1965 24.8902 23.095 25.0029 23.0747L29.8644 22.1411L30.7662 17.1078C30.7858 16.9962 30.8838 16.9099 30.9916 16.9099C31.0994 16.9099 31.1975 16.9911 31.2171 17.1078L32.1188 22.1411L36.9803 23.0747C37.0882 23.095 37.1715 23.1965 37.1715 23.3081C37.1715 23.4197 37.0931 23.5212 36.9803 23.5415L32.1188 24.4751L31.2171 29.5084C31.1975 29.62 31.0994 29.7063 30.9916 29.7063ZM26.3114 23.3081L30.1046 24.0387C30.1977 24.059 30.2712 24.1351 30.2908 24.2315L30.9965 28.1587L31.7022 24.2315C31.7218 24.1351 31.7953 24.059 31.8885 24.0387L35.6816 23.3081L31.8885 22.5774C31.7953 22.5572 31.7218 22.481 31.7022 22.3846L30.9965 18.4574L30.2908 22.3846C30.2712 22.481 30.1977 22.5572 30.1046 22.5774L26.3114 23.3081Z" fill="#E8BB2A"/>
<path d="M29.1538 22.7551C29.0803 22.7551 29.0068 22.7196 28.9627 22.6536L26.5956 19.0867C26.5319 18.9903 26.5417 18.8634 26.625 18.7822C26.7034 18.701 26.8259 18.6909 26.9191 18.7518L30.3643 21.2025C30.4672 21.2786 30.4966 21.4257 30.4231 21.5374C30.3496 21.649 30.2075 21.6743 30.0996 21.5982L27.6836 19.8782L29.3449 22.3796C29.4184 22.4862 29.389 22.6384 29.2861 22.7145C29.2469 22.7449 29.2028 22.7551 29.1538 22.7551Z" fill="#E8BB2A"/>
<path d="M26.7868 27.9C26.728 27.9 26.6692 27.8746 26.6251 27.8289C26.5467 27.7478 26.5369 27.6209 26.5957 27.5245L28.9627 23.9576C29.0362 23.8459 29.1784 23.8206 29.2862 23.8967C29.394 23.9728 29.4185 24.1199 29.345 24.2316L27.6836 26.733L30.0997 25.0129C30.2026 24.9368 30.3496 24.9673 30.4232 25.0738C30.4967 25.1804 30.4673 25.3326 30.3643 25.4087L26.9191 27.8594C26.8799 27.8898 26.8358 27.9 26.7868 27.9Z" fill="#E8BB2A"/>
<path d="M35.2014 27.9001C35.1573 27.9001 35.1082 27.8848 35.069 27.8595L31.6238 25.4088C31.5209 25.3327 31.4915 25.1855 31.565 25.0739C31.6385 24.9623 31.7806 24.9369 31.8885 25.013L34.3045 26.7331L32.6432 24.2316C32.5697 24.1251 32.5991 23.9729 32.702 23.8968C32.8049 23.8207 32.9519 23.8511 33.0254 23.9577L35.3925 27.5246C35.4562 27.621 35.4464 27.7479 35.3631 27.829C35.319 27.8747 35.2602 27.9001 35.2014 27.9001Z" fill="#E8BB2A"/>
<path d="M32.8343 22.755C32.7902 22.755 32.7412 22.7398 32.702 22.7144C32.5991 22.6383 32.5697 22.4912 32.6432 22.3796L34.3045 19.8781L31.8885 21.5982C31.7855 21.6743 31.6385 21.6438 31.565 21.5373C31.4915 21.4307 31.5209 21.2785 31.6238 21.2024L35.069 18.7517C35.1622 18.6858 35.2847 18.701 35.3631 18.7822C35.4415 18.8634 35.4513 18.9902 35.3925 19.0866L33.0254 22.6535C32.9813 22.7195 32.9078 22.755 32.8343 22.755Z" fill="#E8BB2A"/>
<path d="M90.1036 11.9252C90.1036 12.0304 89.9043 12.0871 89.5017 12.0992C89.0523 12.1113 88.7552 12.2651 88.6067 12.5565C88.4582 12.8519 88.2315 13.475 87.9227 14.426C87.3911 16.1013 86.9182 17.5257 86.5039 18.6992C85.7965 20.7063 85.1516 22.6446 84.5731 24.5141C84.5262 24.672 84.4637 24.7529 84.3933 24.7529C84.3308 24.7529 84.2761 24.6922 84.2213 24.5708C84.1666 24.4494 84.0064 24.0245 83.7406 23.2921C83.4123 22.3371 83.0527 21.374 82.6657 20.4069C82.3609 19.6461 82.0599 18.8651 81.7668 18.0558C80.946 20.1236 80.1291 22.2804 79.3162 24.5303C79.2693 24.676 79.2106 24.7488 79.1364 24.7488C79.0777 24.7488 79.0035 24.6436 78.9214 24.4373C78.554 23.5308 77.1977 19.7837 74.8448 13.1918C74.6807 12.7264 74.5556 12.4351 74.4735 12.3218C74.3914 12.2044 74.1843 12.1397 73.8521 12.1275C73.2853 12.1032 73 12.0183 73 11.8726C73 11.7633 73.0938 11.7067 73.2853 11.7067C73.3674 11.7067 73.4378 11.7148 73.4964 11.7269C74.1217 11.7633 74.794 11.7836 75.5171 11.7836C75.6578 11.7836 75.904 11.7714 76.2519 11.7471C76.5997 11.7229 77.0531 11.7107 77.6081 11.7107H77.8036C78.0029 11.7107 78.1045 11.7674 78.1045 11.8807C78.1045 12.0183 77.9208 12.0911 77.5573 12.1032C76.8303 12.1275 76.4668 12.2287 76.4668 12.4027C76.4668 12.7467 77.5534 15.9313 79.7226 21.9607C80.5122 19.897 81.1023 18.3714 81.4893 17.3962L79.7383 12.6981C79.6445 12.4432 79.535 12.2773 79.41 12.2044C79.2849 12.1316 79.0582 12.0871 78.726 12.0749C78.3937 12.0628 78.2257 12.0061 78.2257 11.909C78.2257 11.7755 78.3508 11.7067 78.597 11.7067C78.7846 11.7067 79.0152 11.7188 79.2888 11.7431C79.5585 11.7674 80.0314 11.7795 80.7076 11.7795H84.0025C84.4402 11.7795 84.964 11.7593 85.5776 11.7188C85.6479 11.7107 85.73 11.7026 85.8238 11.7026C86.1091 11.7026 86.2499 11.7674 86.2499 11.8969C86.2499 12.0142 86.1482 12.0709 85.9489 12.0709H85.6479C85.1164 12.0709 84.7138 12.1437 84.4441 12.2894C84.3269 12.3501 84.108 12.7912 83.7875 13.6086C83.6429 13.9525 83.4045 14.5312 83.0722 15.3486C83.0019 15.5307 82.9003 15.8099 82.7596 16.1782C82.8416 16.421 83.0996 17.1008 83.5334 18.2176C84.0963 19.634 84.5575 20.8479 84.921 21.8596C85.5854 19.8808 86.3671 17.5378 87.27 14.8387C87.7468 13.4022 87.9852 12.601 87.9852 12.4432C87.9852 12.2085 87.7781 12.0911 87.3638 12.0911C86.7853 12.0911 86.4961 12.0223 86.4961 11.8888C86.4961 11.7674 86.6133 11.7026 86.8518 11.7026C87.0511 11.7026 87.2114 11.7107 87.3286 11.7269C87.5866 11.7593 87.825 11.7755 88.036 11.7755H89.4548C89.8105 11.7755 90.0059 11.7917 90.0411 11.82C90.0763 11.8483 90.0958 11.8807 90.0958 11.9171L90.1036 11.9252ZM82.611 12.1356H82.099C81.673 12.1599 81.4619 12.2408 81.4619 12.3744C81.4619 12.3987 81.8098 13.4629 82.5055 15.5631C82.7752 14.952 83.0918 14.1427 83.4553 13.1392C83.5022 13.0056 83.5764 12.8276 83.6741 12.6091L83.7093 12.4634C83.7093 12.2449 83.3419 12.1356 82.611 12.1356Z" fill="#4242E9"/>
<path d="M99.5465 21.564C99.5465 21.6125 99.5348 21.912 99.5113 22.4623C99.4879 23.0127 99.4762 23.5387 99.4762 24.0405V24.6475C98.3192 24.5746 96.0289 24.5382 92.6011 24.5382H90.385C90.1622 24.5382 90.0488 24.4897 90.0488 24.3925C90.0488 24.3278 90.084 24.2873 90.1544 24.2792C90.1895 24.2792 90.4123 24.263 90.8266 24.2307C91.1354 24.2064 91.3191 24.1376 91.3855 24.0283C91.452 23.9191 91.4833 23.6318 91.4833 23.1624V12.8152C91.4833 12.4591 91.4324 12.2487 91.3308 12.1799C91.2292 12.1111 90.9087 12.0788 90.3654 12.0788C90.1778 12.0788 90.0801 12.0262 90.0801 11.9209C90.0801 11.8157 90.2091 11.7672 90.4709 11.7672H97.9831C98.3388 11.7672 98.6632 11.7429 98.9563 11.6943C98.9798 12.2204 99.0345 12.9488 99.1166 13.8754L99.1869 14.6645C99.1987 14.7252 99.2065 14.8062 99.2065 14.9033C99.2065 15.0247 99.1518 15.0854 99.0462 15.0854C98.9172 15.0854 98.8234 14.9316 98.7609 14.6241C98.5381 13.5153 98.1707 12.8152 97.6626 12.5198C97.2835 12.2973 96.2907 12.188 94.6882 12.188H93.2343V17.5821H93.6603C94.9814 17.5821 95.7904 17.4769 96.0797 17.2705C96.3689 17.0642 96.5682 16.4572 96.6738 15.4536C96.6972 15.1987 96.7637 15.0692 96.8692 15.0692C96.9982 15.0692 97.0646 15.1785 97.0646 15.401C97.0646 15.6236 97.0529 15.9433 97.0294 16.3722C97.006 16.8011 96.9943 17.1249 96.9943 17.3434C96.9943 18.6504 97.0138 19.5488 97.0529 20.0384C97.0607 20.1598 97.0685 20.265 97.0685 20.35C97.0685 20.5078 97.0021 20.5887 96.8731 20.5887C96.791 20.5887 96.7363 20.5361 96.705 20.435C96.6738 20.3338 96.6269 19.9898 96.5565 19.4152C96.4627 18.6949 96.1735 18.2458 95.6927 18.0758C95.4817 18.003 94.9267 17.9666 94.0355 17.9666H93.2421V24.1093C95.8412 24.1093 97.3656 24.0567 97.8111 23.9474C98.5889 23.7653 99.0345 22.9924 99.14 21.6287C99.1635 21.3252 99.2417 21.1755 99.3706 21.1755C99.4879 21.1755 99.5465 21.305 99.5465 21.5599V21.564Z" fill="#4242E9"/>
<path d="M109.717 23.0654C109.717 23.3851 109.697 23.9071 109.662 24.6436H109.466C109.396 24.6436 109.224 24.6314 108.954 24.6072C108.685 24.5829 108.376 24.5707 108.036 24.5707L100.68 24.5141C100.481 24.5141 100.379 24.4574 100.379 24.3482C100.379 24.2632 100.539 24.2066 100.856 24.1823C101.305 24.158 101.575 24.1054 101.661 24.0245C101.751 23.9435 101.794 23.7169 101.794 23.3365V13.0339C101.794 12.5807 101.751 12.3177 101.661 12.2448C101.571 12.172 101.255 12.1356 100.711 12.1356C100.489 12.1356 100.375 12.0668 100.375 11.9332C100.375 11.824 100.446 11.7673 100.586 11.7673H100.747C101.137 11.8038 101.911 11.824 103.068 11.824C103.174 11.824 103.381 11.8159 103.69 11.7957C103.998 11.7795 104.249 11.7673 104.452 11.7673H104.647C104.858 11.7673 104.968 11.828 104.968 11.9494C104.968 12.0223 104.936 12.0668 104.87 12.087C104.804 12.1032 104.6 12.1194 104.26 12.1315C103.916 12.1437 103.713 12.2003 103.651 12.3055C103.584 12.4107 103.553 12.7304 103.553 13.2686V24.0892C103.873 24.1013 104.315 24.1094 104.882 24.1094C106.265 24.1094 107.239 24.0366 107.805 23.8909C108.372 23.7452 108.755 23.4701 108.958 23.0654C109.158 22.6608 109.279 22.1185 109.314 21.4346C109.326 21.2768 109.392 21.1959 109.517 21.1959C109.666 21.1959 109.732 21.289 109.72 21.4711V23.0654H109.717Z" fill="#4242E9"/>
<path d="M119.707 23.0654C119.707 23.3851 119.687 23.9071 119.652 24.6436H119.457C119.386 24.6436 119.214 24.6314 118.945 24.6072C118.675 24.5829 118.366 24.5707 118.026 24.5707L110.67 24.5141C110.471 24.5141 110.369 24.4574 110.369 24.3482C110.369 24.2632 110.53 24.2066 110.846 24.1823C111.296 24.158 111.565 24.1054 111.651 24.0245C111.741 23.9435 111.784 23.7169 111.784 23.3365V13.0339C111.784 12.5807 111.741 12.3177 111.651 12.2448C111.561 12.172 111.245 12.1356 110.702 12.1356C110.479 12.1356 110.365 12.0668 110.365 11.9332C110.365 11.824 110.436 11.7673 110.577 11.7673H110.737C111.128 11.8038 111.902 11.824 113.058 11.824C113.164 11.824 113.371 11.8159 113.68 11.7957C113.989 11.7795 114.239 11.7673 114.442 11.7673H114.637C114.849 11.7673 114.958 11.828 114.958 11.9494C114.958 12.0223 114.927 12.0668 114.86 12.087C114.794 12.1032 114.591 12.1194 114.251 12.1315C113.907 12.1437 113.703 12.2003 113.641 12.3055C113.574 12.4107 113.543 12.7304 113.543 13.2686V24.0892C113.864 24.1013 114.305 24.1094 114.872 24.1094C116.256 24.1094 117.229 24.0366 117.796 23.8909C118.362 23.7452 118.745 23.4701 118.949 23.0654C119.148 22.6608 119.269 22.1185 119.304 21.4346C119.316 21.2768 119.382 21.1959 119.507 21.1959C119.656 21.1959 119.722 21.289 119.711 21.4711V23.0654H119.707Z" fill="#4242E9"/>
<path d="M131.276 11.9494C131.276 12.0708 131.127 12.1275 130.834 12.1153H130.127C129.939 12.1153 129.826 12.1477 129.791 12.2165C129.756 12.2853 129.736 12.4876 129.736 12.8316V23.3811C129.736 24.0285 129.728 24.4089 129.72 24.5181C129.709 24.6274 129.673 24.6841 129.615 24.6841C129.544 24.6841 129.462 24.6153 129.369 24.4817L127.106 21.0502C125.792 19.0472 124.198 16.5504 122.318 13.5519V23.8221C122.329 23.9799 122.419 24.0811 122.587 24.1256C122.755 24.1701 123.154 24.1944 123.787 24.2106C123.944 24.2106 124.022 24.2592 124.022 24.3563C124.022 24.4777 123.869 24.5384 123.561 24.5384C123.455 24.5384 123.119 24.5222 122.552 24.4817C122.365 24.4696 122.181 24.4655 122.005 24.4655C122.017 24.4655 121.915 24.4777 121.696 24.502C121.477 24.5262 121.145 24.5384 120.696 24.5384H120.52C120.246 24.5384 120.113 24.4817 120.113 24.3725C120.113 24.2632 120.23 24.2066 120.469 24.2066C121.165 24.1944 121.571 24.1499 121.681 24.069C121.794 23.988 121.849 23.7291 121.849 23.288V14.2277C121.849 13.212 121.649 12.5767 121.247 12.3177C121.059 12.1963 120.723 12.1356 120.238 12.1356C119.93 12.1356 119.777 12.0708 119.777 11.9413C119.777 11.824 119.867 11.7673 120.043 11.7673C120.277 11.7673 120.578 11.7795 120.946 11.8038C121.313 11.828 121.509 11.8402 121.532 11.8402C121.567 11.8402 121.731 11.8361 122.028 11.824C122.419 11.824 122.794 11.8038 123.162 11.7673L129.275 21.2121V13.0501C129.275 12.6697 129.267 12.4431 129.255 12.3622C129.244 12.2813 129.197 12.2206 129.115 12.1801C129.032 12.1356 128.747 12.1153 128.262 12.1153C127.836 12.1153 127.625 12.0587 127.625 11.9494C127.625 11.828 127.766 11.7673 128.051 11.7673H130.905C131.163 11.7673 131.295 11.828 131.295 11.9494H131.276Z" fill="#4242E9"/>
<path d="M141.462 21.564C141.462 21.6125 141.45 21.912 141.426 22.4623C141.403 23.0127 141.391 23.5387 141.391 24.0405V24.6475C140.234 24.5746 137.944 24.5382 134.516 24.5382H132.3C132.077 24.5382 131.964 24.4897 131.964 24.3925C131.964 24.3278 131.999 24.2873 132.069 24.2792C132.105 24.2792 132.327 24.263 132.742 24.2307C133.05 24.2064 133.234 24.1376 133.301 24.0283C133.367 23.9191 133.398 23.6318 133.398 23.1624V12.8152C133.398 12.4591 133.347 12.2487 133.246 12.1799C133.144 12.1111 132.824 12.0788 132.28 12.0788C132.093 12.0788 131.995 12.0262 131.995 11.9209C131.995 11.8157 132.124 11.7672 132.386 11.7672H139.898C140.254 11.7672 140.578 11.7429 140.871 11.6943C140.895 12.2204 140.95 12.9488 141.032 13.8754L141.102 14.6645C141.114 14.7252 141.122 14.8062 141.122 14.9033C141.122 15.0247 141.067 15.0854 140.961 15.0854C140.832 15.0854 140.738 14.9316 140.676 14.6241C140.453 13.5153 140.086 12.8152 139.578 12.5198C139.199 12.2973 138.206 12.188 136.603 12.188H135.149V17.5821H135.575C136.896 17.5821 137.705 17.4769 137.995 17.2705C138.284 17.0642 138.483 16.4572 138.589 15.4536C138.612 15.1987 138.679 15.0692 138.784 15.0692C138.913 15.0692 138.98 15.1785 138.98 15.401C138.98 15.6236 138.968 15.9433 138.944 16.3722C138.921 16.8011 138.909 17.1249 138.909 17.3434C138.909 18.6504 138.929 19.5488 138.968 20.0384C138.976 20.1598 138.984 20.265 138.984 20.35C138.984 20.5078 138.917 20.5887 138.788 20.5887C138.706 20.5887 138.651 20.5361 138.62 20.435C138.589 20.3338 138.542 19.9898 138.472 19.4152C138.378 18.6949 138.089 18.2458 137.608 18.0758C137.397 18.003 136.842 17.9666 135.951 17.9666H135.157V24.1093C137.756 24.1093 139.281 24.0567 139.726 23.9474C140.504 23.7653 140.95 22.9924 141.055 21.6287C141.079 21.3252 141.157 21.1755 141.286 21.1755C141.403 21.1755 141.462 21.305 141.462 21.5599V21.564Z" fill="#4242E9"/>
<path d="M150.127 20.9369C150.127 21.989 149.74 22.8833 148.966 23.6238C148.192 24.3643 147.262 24.7326 146.175 24.7326C145.538 24.7326 144.776 24.5302 143.889 24.1256C143.654 24.0163 143.474 23.9597 143.357 23.9597C143.216 23.9597 143.126 24.1296 143.091 24.4655C143.08 24.6395 143.001 24.7285 142.861 24.7285C142.743 24.7285 142.685 24.6557 142.685 24.51C142.685 24.4129 142.689 24.34 142.7 24.2915C142.794 23.5469 142.841 22.8549 142.841 22.2196C142.841 22.0982 142.829 21.7543 142.806 21.1918C142.794 21.119 142.79 21.0218 142.79 20.8964C142.79 20.7143 142.861 20.6212 143.001 20.6212C143.119 20.6212 143.201 20.7709 143.248 21.0663C143.556 23.2636 144.553 24.3643 146.242 24.3643C146.961 24.3643 147.52 24.1539 147.914 23.7331C148.309 23.3122 148.508 22.7133 148.508 21.9445C148.508 21.2606 148.317 20.6779 147.934 20.1923C147.551 19.7107 146.89 19.2292 145.96 18.7517C144.838 18.1771 144.057 17.6227 143.623 17.0845C143.185 16.5463 142.966 15.8786 142.966 15.0855C142.966 14.0698 143.283 13.2321 143.912 12.5726C144.545 11.913 145.343 11.5811 146.312 11.5811C146.714 11.5811 147.27 11.7228 147.977 12.002C148.223 12.0991 148.407 12.1477 148.528 12.1477C148.657 12.1477 148.743 12.1234 148.786 12.0748C148.829 12.0263 148.864 11.8968 148.899 11.6904C148.923 11.569 148.989 11.5083 149.095 11.5083C149.212 11.5083 149.271 11.5811 149.271 11.7268C149.271 11.8239 149.263 11.8968 149.255 11.9453C149.22 12.2367 149.2 12.5928 149.2 13.0096C149.2 13.5963 149.232 14.0617 149.29 14.4016L149.31 14.697C149.321 14.8306 149.267 14.8993 149.149 14.8993C149.021 14.8993 148.931 14.7577 148.884 14.4785C148.755 13.7582 148.446 13.1553 147.961 12.6737C147.477 12.1922 146.933 11.9494 146.331 11.9494C145.73 11.9494 145.272 12.1436 144.924 12.5361C144.577 12.9287 144.401 13.4588 144.401 14.1305C144.401 14.9115 144.655 15.5428 145.163 16.0203C145.448 16.2914 146.062 16.6677 147.004 17.1573C148.114 17.732 148.911 18.3147 149.396 18.9095C149.88 19.5044 150.123 20.1801 150.123 20.9369H150.127Z" fill="#4242E9"/>
<path d="M158.948 20.9369C158.948 21.989 158.561 22.8833 157.787 23.6238C157.013 24.3643 156.083 24.7326 154.997 24.7326C154.36 24.7326 153.597 24.5302 152.71 24.1256C152.476 24.0163 152.296 23.9597 152.179 23.9597C152.038 23.9597 151.948 24.1296 151.913 24.4655C151.901 24.6395 151.823 24.7285 151.682 24.7285C151.565 24.7285 151.506 24.6557 151.506 24.51C151.506 24.4129 151.51 24.34 151.522 24.2915C151.616 23.5469 151.663 22.8549 151.663 22.2196C151.663 22.0982 151.651 21.7543 151.628 21.1918C151.616 21.119 151.612 21.0218 151.612 20.8964C151.612 20.7143 151.682 20.6212 151.823 20.6212C151.94 20.6212 152.022 20.7709 152.069 21.0663C152.378 23.2636 153.375 24.3643 155.063 24.3643C155.782 24.3643 156.341 24.1539 156.736 23.7331C157.131 23.3122 157.33 22.7133 157.33 21.9445C157.33 21.2606 157.139 20.6779 156.755 20.1923C156.372 19.7107 155.712 19.2292 154.782 18.7517C153.66 18.1771 152.878 17.6227 152.444 17.0845C152.007 16.5463 151.788 15.8786 151.788 15.0855C151.788 14.0698 152.104 13.2321 152.734 12.5726C153.367 11.913 154.164 11.5811 155.133 11.5811C155.536 11.5811 156.091 11.7228 156.798 12.002C157.045 12.0991 157.228 12.1477 157.35 12.1477C157.479 12.1477 157.565 12.1234 157.608 12.0748C157.651 12.0263 157.686 11.8968 157.721 11.6904C157.744 11.569 157.811 11.5083 157.916 11.5083C158.034 11.5083 158.092 11.5811 158.092 11.7268C158.092 11.8239 158.084 11.8968 158.077 11.9453C158.041 12.2367 158.022 12.5928 158.022 13.0096C158.022 13.5963 158.053 14.0617 158.112 14.4016L158.131 14.697C158.143 14.8306 158.088 14.8993 157.971 14.8993C157.842 14.8993 157.752 14.7577 157.705 14.4785C157.576 13.7582 157.267 13.1553 156.783 12.6737C156.298 12.1922 155.755 11.9494 155.153 11.9494C154.551 11.9494 154.094 12.1436 153.746 12.5361C153.398 12.9287 153.222 13.4588 153.222 14.1305C153.222 14.9115 153.476 15.5428 153.984 16.0203C154.27 16.2914 154.883 16.6677 155.825 17.1573C156.935 17.732 157.733 18.3147 158.217 18.9095C158.702 19.5044 158.944 20.1801 158.944 20.9369H158.948Z" fill="#4242E9"/>
<path d="M174.219 24.3966C174.219 24.5018 174.129 24.5544 173.953 24.5544C173.836 24.5544 173.73 24.5463 173.633 24.5342L171.381 24.4613L169.13 24.5342C169.048 24.5463 168.958 24.5544 168.864 24.5544C168.63 24.5544 168.508 24.4897 168.508 24.3642C168.508 24.2226 168.669 24.1538 168.985 24.1538C170.025 24.1416 170.545 24.0324 170.545 23.8301C170.545 23.8179 170.533 23.7694 170.51 23.6884L170.365 23.2028L170.275 22.9479C170.17 22.5675 169.908 21.7299 169.497 20.4309H165.71C165.003 22.3895 164.647 23.5144 164.647 23.8058C164.647 23.9757 164.717 24.0809 164.858 24.1174C164.893 24.1295 165.19 24.1538 165.745 24.1902C166.089 24.2023 166.257 24.263 166.257 24.3723C166.257 24.4937 166.105 24.5544 165.796 24.5544C165.253 24.5544 164.619 24.5301 163.9 24.4816C163.724 24.4694 163.541 24.4654 163.349 24.4654C163.158 24.4654 162.978 24.4856 162.798 24.5261C162.704 24.5463 162.626 24.5584 162.568 24.5584C162.403 24.5584 162.321 24.5018 162.321 24.3925C162.321 24.2833 162.509 24.2226 162.88 24.2064C163.252 24.1943 163.521 24.1376 163.685 24.0324C163.85 23.9272 163.978 23.7289 164.076 23.4335C165.597 18.9175 166.832 15.2918 167.785 12.5563C167.813 12.4106 167.867 12.2487 167.95 12.0707L168.024 11.7348C168.059 11.6013 168.106 11.5325 168.165 11.5325C168.2 11.5325 168.231 11.5689 168.254 11.6417C168.407 12.1192 168.755 13.1147 169.298 14.6322C169.724 15.8178 170.779 18.7961 172.468 23.563C172.562 23.8382 172.683 24.0162 172.831 24.0931C172.98 24.17 173.285 24.2104 173.742 24.2266C174.051 24.2388 174.203 24.2954 174.203 24.4006L174.219 24.3966ZM169.419 20.006C169.228 19.4557 168.907 18.5452 168.462 17.2705L167.61 14.7293C167.113 16.0808 166.511 17.8411 165.812 20.006H169.415H169.419Z" fill="#4242E9"/>
<path d="M183.943 23.9638C183.943 24.4777 183.529 24.7326 182.704 24.7326C181.782 24.7326 181.063 24.336 180.543 23.5389C180.32 23.1949 180.175 22.8671 180.109 22.5475C180.042 22.2278 179.945 21.4225 179.816 20.1276C179.745 19.3466 179.503 18.7922 179.089 18.4685C178.674 18.1448 178.002 17.9708 177.068 17.9465V23.725C177.068 23.9719 177.256 24.1216 177.635 24.1823C177.74 24.1944 178.014 24.2066 178.448 24.2187C178.6 24.2187 178.678 24.2673 178.678 24.3644C178.678 24.4736 178.577 24.5303 178.377 24.5303H174.215C173.953 24.5303 173.824 24.4736 173.824 24.3644C173.824 24.2794 173.996 24.2308 174.336 24.2187C174.891 24.2066 175.192 24.1337 175.239 24.0002C175.286 23.9395 175.309 23.7007 175.309 23.2839V13.1634C175.309 12.6738 175.258 12.3824 175.157 12.2813C175.055 12.1841 174.75 12.1275 174.246 12.1153C173.949 12.1153 173.804 12.0587 173.804 11.9494C173.804 11.828 173.898 11.7673 174.09 11.7673C174.125 11.7673 174.18 11.7754 174.25 11.7835L176.607 11.8402C176.841 11.8402 177.174 11.8321 177.6 11.8159C178.073 11.7835 178.401 11.7673 178.592 11.7673C179.691 11.7673 180.562 12.0223 181.207 12.5281C181.852 13.0339 182.173 13.7218 182.173 14.5919C182.173 15.4619 181.84 16.1538 181.18 16.7123C180.519 17.2707 179.62 17.5944 178.487 17.6956C178.381 17.7077 178.323 17.728 178.311 17.7522C178.311 17.8008 178.37 17.8251 178.487 17.8251C179.726 18.0476 180.582 18.4968 181.047 19.1766C181.512 19.8565 181.825 21.0866 181.977 22.8631C182.071 23.8707 182.403 24.3725 182.97 24.3725C183.146 24.3725 183.236 24.336 183.236 24.2632C183.236 24.2511 183.228 24.2389 183.216 24.2268C183.158 24.0933 183.126 23.984 183.126 23.895C183.126 23.64 183.255 23.5105 183.517 23.5105C183.802 23.5105 183.943 23.6643 183.943 23.9678V23.9638ZM180.277 14.774C180.277 13.0258 179.546 12.1518 178.08 12.1518C177.69 12.1518 177.424 12.2084 177.283 12.3177C177.142 12.4269 177.072 12.6252 177.072 12.9044V17.5621C178.205 17.5742 179.022 17.3597 179.527 16.9186C180.027 16.4776 180.281 15.7613 180.281 14.774H180.277Z" fill="#4242E9"/>
<path d="M193.953 15.049C193.953 15.2068 193.882 15.2877 193.742 15.2877C193.601 15.2877 193.499 15.1299 193.441 14.8102C193.417 14.5917 193.394 14.3692 193.37 14.1506C193.288 13.7096 193.151 13.3373 192.964 13.0297C192.718 12.6251 192.307 12.3701 191.74 12.2609C191.373 12.188 191.08 12.1557 190.853 12.1678C190.298 12.184 189.962 12.1961 189.845 12.2042V23.2797C189.845 23.7208 189.958 23.996 190.181 24.1053C190.298 24.166 190.63 24.2024 191.174 24.2145C191.314 24.2267 191.385 24.2793 191.385 24.3723C191.385 24.4775 191.291 24.5261 191.099 24.5261C191.006 24.5261 190.924 24.518 190.853 24.5099C190.146 24.4856 189.642 24.4735 189.348 24.4735C188.958 24.4735 188.594 24.4816 188.25 24.5018C187.906 24.518 187.472 24.5301 186.941 24.5301C186.667 24.5301 186.534 24.4816 186.534 24.3845C186.534 24.2752 186.788 24.2145 187.296 24.2024C187.664 24.2024 187.898 24.1214 188.004 23.9636C188.063 23.8665 188.094 23.6156 188.094 23.211V12.2083C186.925 12.2204 186.198 12.2811 185.913 12.3904C185.17 12.6736 184.733 13.4222 184.604 14.6484C184.568 15.0166 184.486 15.1987 184.357 15.1987C184.217 15.1987 184.146 15.0692 184.146 14.8143C184.146 14.6807 184.154 14.5472 184.166 14.4096L184.201 13.9888C184.236 13.4263 184.291 12.6858 184.361 11.7712H185.159L188.774 11.8279C189.2 11.84 189.86 11.84 190.759 11.8279L193.699 11.7712C193.722 12.4551 193.8 13.4708 193.929 14.8143C193.929 14.8507 193.937 14.8952 193.949 14.9519C193.961 15.0085 193.968 15.0409 193.968 15.053L193.953 15.049Z" fill="#4242E9"/>
<path d="M77.9051 35.0349L77.8972 31.8422L76.369 34.4846H75.9821L74.4538 31.8826V35.0349H73.6292V30.2195H74.3405L76.1892 33.4122L78.0028 30.2195H78.7141L78.7219 35.0349H77.9051Z" fill="#4242E9"/>
<path d="M86.4492 33.9221H84.1236L83.6663 35.0349H82.7751L84.8662 30.2195H85.7183L87.8171 35.0349H86.9143L86.4492 33.9221ZM86.1638 33.2221L85.2883 31.1178L84.4167 33.2221H86.1638Z" fill="#4242E9"/>
<path d="M92.2688 34.9462C91.9326 34.841 91.6708 34.6993 91.4753 34.5253L91.7724 33.8293C91.9639 33.9831 92.1984 34.1126 92.472 34.2097C92.7495 34.3068 93.027 34.3594 93.3045 34.3594C93.6485 34.3594 93.9064 34.3028 94.0784 34.1895C94.2504 34.0762 94.3325 33.9224 94.3325 33.7363C94.3325 33.5987 94.2856 33.4854 94.1878 33.3963C94.094 33.3073 93.9729 33.2385 93.8244 33.1859C93.6797 33.1374 93.4804 33.0767 93.2264 33.016C92.8707 32.931 92.5854 32.842 92.3665 32.7529C92.1476 32.6639 91.96 32.5304 91.8037 32.3442C91.6473 32.1581 91.5691 31.9072 91.5691 31.5916C91.5691 31.3245 91.6395 31.0817 91.7802 30.8672C91.9209 30.6487 92.132 30.4747 92.4095 30.3493C92.687 30.2238 93.0348 30.155 93.4413 30.155C93.7266 30.155 94.0041 30.1914 94.2777 30.2643C94.5513 30.3371 94.7898 30.4423 94.9891 30.5799L94.7155 31.2759C94.5123 31.1505 94.2973 31.0574 94.0784 30.9927C93.8556 30.9279 93.6407 30.8956 93.4335 30.8956C93.0935 30.8956 92.8394 30.9563 92.6713 31.0736C92.5033 31.191 92.4212 31.3528 92.4212 31.5471C92.4212 31.6846 92.4681 31.7979 92.5658 31.8829C92.6596 31.9719 92.7808 32.0407 92.9293 32.0893C93.0739 32.1379 93.2733 32.1986 93.5273 32.2633C93.8713 32.3442 94.1566 32.4333 94.3794 32.5223C94.6021 32.6113 94.7898 32.7489 94.9461 32.931C95.1024 33.1131 95.1806 33.364 95.1806 33.6756C95.1806 33.9426 95.1103 34.1814 94.9696 34.3999C94.8288 34.6144 94.6178 34.7884 94.3364 34.9179C94.051 35.0474 93.7071 35.1121 93.3006 35.1121C92.941 35.1121 92.5932 35.0595 92.261 34.9543L92.2688 34.9462Z" fill="#4242E9"/>
<path d="M99.9021 34.9462C99.5659 34.841 99.3041 34.6993 99.1086 34.5253L99.4057 33.8293C99.5972 33.9831 99.8317 34.1126 100.105 34.2097C100.383 34.3068 100.66 34.3594 100.938 34.3594C101.282 34.3594 101.54 34.3028 101.712 34.1895C101.884 34.0762 101.966 33.9224 101.966 33.7363C101.966 33.5987 101.919 33.4854 101.821 33.3963C101.727 33.3073 101.606 33.2385 101.458 33.1859C101.313 33.1374 101.114 33.0767 100.86 33.016C100.504 32.931 100.219 32.842 99.9998 32.7529C99.7809 32.6639 99.5933 32.5304 99.437 32.3442C99.2806 32.1581 99.2024 31.9072 99.2024 31.5916C99.2024 31.3245 99.2728 31.0817 99.4135 30.8672C99.5542 30.6487 99.7653 30.4747 100.043 30.3493C100.32 30.2238 100.668 30.155 101.075 30.155C101.36 30.155 101.637 30.1914 101.911 30.2643C102.185 30.3371 102.423 30.4423 102.622 30.5799L102.349 31.2759C102.146 31.1505 101.931 31.0574 101.712 30.9927C101.489 30.9279 101.274 30.8956 101.067 30.8956C100.727 30.8956 100.473 30.9563 100.305 31.0736C100.137 31.191 100.055 31.3528 100.055 31.5471C100.055 31.6846 100.101 31.7979 100.199 31.8829C100.293 31.9719 100.414 32.0407 100.563 32.0893C100.707 32.1379 100.907 32.1986 101.161 32.2633C101.505 32.3442 101.79 32.4333 102.013 32.5223C102.235 32.6113 102.423 32.7489 102.579 32.931C102.736 33.1131 102.814 33.364 102.814 33.6756C102.814 33.9426 102.744 34.1814 102.603 34.3999C102.462 34.6144 102.251 34.7884 101.97 34.9179C101.684 35.0474 101.34 35.1121 100.934 35.1121C100.574 35.1121 100.226 35.0595 99.8943 34.9543L99.9021 34.9462Z" fill="#4242E9"/>
<path d="M110.15 33.9221H107.825L107.367 35.0349H106.476L108.567 30.2195H109.419L111.518 35.0349H110.615L110.15 33.9221ZM109.865 33.2221L108.989 31.1178L108.118 33.2221H109.865Z" fill="#4242E9"/>
<path d="M118.675 32.5749H119.492V34.493C119.253 34.6913 118.972 34.841 118.655 34.9462C118.339 35.0514 118.01 35.104 117.67 35.104C117.197 35.104 116.767 34.9988 116.388 34.7843C116.009 34.5699 115.708 34.2745 115.493 33.9022C115.274 33.5258 115.169 33.1009 115.169 32.6275C115.169 32.154 115.278 31.7292 115.493 31.3569C115.712 30.9805 116.009 30.6851 116.392 30.4747C116.775 30.2602 117.205 30.155 117.686 30.155C118.077 30.155 118.428 30.2238 118.749 30.3533C119.069 30.4868 119.335 30.6811 119.554 30.9401L119.011 31.4904C118.655 31.1222 118.229 30.9401 117.729 30.9401C117.4 30.9401 117.111 31.0129 116.853 31.1545C116.599 31.2962 116.4 31.4944 116.255 31.7534C116.111 32.0124 116.04 32.3038 116.04 32.6356C116.04 32.9674 116.111 33.2466 116.255 33.5016C116.4 33.7565 116.599 33.9588 116.853 34.1085C117.107 34.2542 117.397 34.3271 117.721 34.3271C118.084 34.3271 118.405 34.2461 118.679 34.0802V32.5789L118.675 32.5749Z" fill="#4242E9"/>
<path d="M127.575 34.2863V35.0349H124.088V30.2195H127.485V30.9681H124.952V32.2185H127.199V32.955H124.952V34.2823H127.575V34.2863Z" fill="#4242E9"/>
<path d="M138.225 30.9762H136.685V30.2195H140.633V30.9762H139.093V35.0349H138.229V30.9762H138.225Z" fill="#4242E9"/>
<path d="M148.868 30.2195V35.0349H148.004V32.9712H145.601V35.0349H144.737V30.2195H145.601V32.2064H148.004V30.2195H148.868Z" fill="#4242E9"/>
<path d="M157.06 34.2863V35.0349H153.574V30.2195H156.97V30.9681H154.438V32.2185H156.685V32.955H154.438V34.2823H157.06V34.2863Z" fill="#4242E9"/>
<path d="M164.522 35.0349L163.572 33.6227C163.533 33.6267 163.474 33.6308 163.392 33.6308H162.341V35.0349H161.477V30.2195H163.392C163.795 30.2195 164.146 30.2883 164.443 30.4259C164.744 30.5634 164.971 30.7617 165.131 31.0167C165.292 31.2716 165.37 31.5791 165.37 31.9312C165.37 32.2832 165.284 32.607 165.116 32.866C164.944 33.129 164.701 33.3232 164.381 33.4527L165.452 35.0349H164.522ZM164.209 31.223C164.013 31.0571 163.728 30.9762 163.353 30.9762H162.344V32.8943H163.353C163.728 32.8943 164.013 32.8093 164.209 32.6434C164.404 32.4775 164.502 32.2387 164.502 31.9312C164.502 31.6236 164.404 31.3889 164.209 31.223Z" fill="#4242E9"/>
<path d="M172.808 33.9221H170.482L170.025 35.0349H169.134L171.225 30.2195H172.077L174.176 35.0349H173.273L172.808 33.9221ZM172.522 33.2221L171.647 31.1178L170.775 33.2221H172.522Z" fill="#4242E9"/>
<path d="M181.191 30.4258C181.492 30.5633 181.719 30.7616 181.879 31.0166C182.04 31.2715 182.118 31.579 182.118 31.9311C182.118 32.2831 182.04 32.5826 181.879 32.8416C181.719 33.1006 181.492 33.2988 181.191 33.4364C180.89 33.574 180.543 33.6428 180.14 33.6428H179.089V35.0308H178.225V30.2153H180.14C180.543 30.2153 180.894 30.2841 181.191 30.4217V30.4258ZM180.957 32.6392C181.152 32.4733 181.25 32.2386 181.25 31.9311C181.25 31.6235 181.152 31.3888 180.957 31.2229C180.761 31.057 180.476 30.9761 180.101 30.9761H179.093V32.8901H180.101C180.476 32.8901 180.761 32.8092 180.957 32.6433V32.6392Z" fill="#4242E9"/>
<path d="M186.437 30.2195H187.3V35.0349H186.437V30.2195Z" fill="#4242E9"/>
<path d="M192.413 34.9462C192.077 34.841 191.815 34.6993 191.619 34.5253L191.916 33.8293C192.108 33.9831 192.342 34.1126 192.616 34.2097C192.894 34.3068 193.171 34.3594 193.449 34.3594C193.793 34.3594 194.05 34.3028 194.222 34.1895C194.394 34.0762 194.477 33.9224 194.477 33.7363C194.477 33.5987 194.43 33.4854 194.332 33.3963C194.238 33.3073 194.117 33.2385 193.968 33.1859C193.824 33.1374 193.624 33.0767 193.37 33.016C193.015 32.931 192.729 32.842 192.511 32.7529C192.292 32.6639 192.104 32.5304 191.948 32.3442C191.791 32.1581 191.713 31.9072 191.713 31.5916C191.713 31.3245 191.784 31.0817 191.924 30.8672C192.065 30.6487 192.276 30.4747 192.554 30.3493C192.831 30.2238 193.179 30.155 193.585 30.155C193.871 30.155 194.148 30.1914 194.422 30.2643C194.695 30.3371 194.934 30.4423 195.133 30.5799L194.86 31.2759C194.656 31.1505 194.441 31.0574 194.222 30.9927C194 30.9279 193.785 30.8956 193.578 30.8956C193.238 30.8956 192.983 30.9563 192.815 31.0736C192.647 31.191 192.565 31.3528 192.565 31.5471C192.565 31.6846 192.612 31.7979 192.71 31.8829C192.804 31.9719 192.925 32.0407 193.073 32.0893C193.218 32.1379 193.417 32.1986 193.671 32.2633C194.015 32.3442 194.301 32.4333 194.523 32.5223C194.746 32.6113 194.934 32.7489 195.09 32.931C195.246 33.1131 195.325 33.364 195.325 33.6756C195.325 33.9426 195.254 34.1814 195.114 34.3999C194.973 34.6144 194.762 34.7884 194.48 34.9179C194.195 35.0474 193.851 35.1121 193.445 35.1121C193.085 35.1121 192.737 35.0595 192.405 34.9543L192.413 34.9462Z" fill="#4242E9"/>
<path d="M200.523 30.9762H198.983V30.2195H202.931V30.9762H201.391V35.0349H200.527V30.9762H200.523Z" fill="#4242E9"/>
</svg>
