<svg width="50" height="50" viewBox="0 0 50 50" fill="none" xmlns="http://www.w3.org/2000/svg">
<path d="M49.2353 24.0814L34.0303 21.2597L42.7869 8.51368C43.0422 8.14297 42.9963 7.64148 42.6778 7.32245C42.3592 7.005 41.8588 6.95859 41.4865 7.21277L28.7405 15.969L25.9197 0.765677C25.8374 0.321669 25.4509 0 25 0C24.5491 0 24.1626 0.321669 24.0803 0.765677L21.259 15.969L8.51298 7.21277C8.1412 6.95965 7.64075 7.00605 7.3217 7.32245C7.00318 7.64148 6.95731 8.14297 7.21254 8.51368L15.9692 21.2597L0.764128 24.0814C0.321155 24.1631 0 24.5491 0 25C0 25.4509 0.321155 25.8374 0.764128 25.9186L15.9697 28.7393L7.21254 41.4858C6.95731 41.8565 7.00318 42.358 7.3217 42.677C7.50258 42.8568 7.742 42.9512 7.98353 42.9512C8.16704 42.9512 8.35214 42.8964 8.51298 42.7867L21.2595 34.0299L24.0803 49.2338C24.1626 49.6778 24.5491 49.9995 25 49.9995C25.4509 49.9995 25.8374 49.6778 25.9197 49.2338L28.7405 34.0305L41.487 42.7867C41.6479 42.8964 41.8324 42.9512 42.0165 42.9512C42.258 42.9512 42.4974 42.8574 42.6783 42.677C42.9968 42.358 43.0427 41.8581 42.7875 41.4858L34.0308 28.7387L49.2359 25.9181C49.6788 25.8363 50 25.4503 50 24.9995C50 24.5486 49.6788 24.1621 49.2359 24.0809L49.2353 24.0814ZM20.4521 20.32L20.4316 20.4312L20.3203 20.4518L20.4521 20.32ZM20.3187 29.5461L20.4316 29.5672L20.4527 29.68L20.3187 29.5461ZM29.6797 20.4518L29.5689 20.4312L29.5484 20.3205L29.6797 20.4518ZM29.5478 29.679L29.5684 29.5672L29.6802 29.5466L29.5473 29.6795L29.5478 29.679Z" fill="#335460"/>
</svg>
