<svg width="67" height="67" viewBox="0 0 67 67" fill="none" xmlns="http://www.w3.org/2000/svg">
<rect width="67" height="67" fill="white"/>
<path d="M33.4926 58C20.4462 58 9.82861 47.0073 9.82861 33.5C9.82861 19.9927 20.4462 9 33.4926 9C46.539 9 57.1566 19.9927 57.1566 33.5C57.1566 47.0073 46.539 58 33.4926 58ZM33.4926 9.39648C20.656 9.39648 10.2116 20.2099 10.2116 33.5C10.2116 46.7901 20.656 57.6035 33.4926 57.6035C46.3292 57.6035 56.7737 46.7901 56.7737 33.5C56.7737 20.2099 46.3292 9.39648 33.4926 9.39648Z" fill="#4242E9"/>
<path d="M65.2983 26.8524C64.7003 25.0384 63.8977 23.8273 63.158 23.6263C63.1213 23.6154 63.0846 23.6209 63.0479 23.6372C62.5023 23.9359 61.962 24.2672 61.3849 24.6202C59.4282 25.8151 57.4191 27.0642 55.2526 26.9828C53.2591 26.9176 49.9123 24.1368 47.6985 22.2957C46.8277 21.5733 46.1405 21.0031 45.7628 20.7858C44.614 20.1232 42.8776 19.1945 41.1517 18.5156H41.1465L41.0521 18.4721C38.8331 17.538 36.2154 16.4517 35.6069 16.5006C34.9669 16.5386 32.9525 16.8699 31.94 17.4293C31.5728 17.4185 31.2056 17.4022 30.8594 17.3913C29.0601 17.3316 27.5073 17.2773 27.203 17.261C27.1401 17.2501 27.0824 17.2936 27.0561 17.3533C26.8201 17.9453 26.8935 18.5916 27.2555 19.1239C27.6437 19.6941 28.3204 20.0635 29.1755 20.221C28.7086 20.612 28.1106 21.0248 27.6909 21.3126C27.2502 21.6168 27.1506 21.6874 27.1086 21.7471C27.0404 21.8503 27.1034 21.9807 27.1558 22.0621C27.3342 22.3608 28.0214 23.0723 29.1702 23.0723C29.2699 23.0723 29.3748 23.0669 29.485 23.0506C29.9361 23.3059 30.5499 23.4579 31.1636 23.4579C31.7197 23.4579 32.2705 23.333 32.6849 23.0397C33.4403 22.5075 34.4895 21.7797 34.7046 21.6331C35.1347 21.6548 35.5701 21.6765 35.9951 21.6982C37.1072 21.7526 38.1616 21.8014 38.4134 21.8612C39.0009 21.997 39.814 23.1212 41.5976 25.5815L41.6606 25.6684C40.4226 24.9081 38.0462 23.7947 36.441 24.0336C35.6226 24.1531 35.1557 24.4084 35.0141 24.8103C34.82 25.3806 35.3918 26.0215 35.5806 26.2333C35.8692 26.5591 37.0285 27.0262 38.3714 27.5639C39.2003 27.8952 40.0501 28.2374 40.7006 28.5524C41.4612 28.9217 42.4212 30.0785 43.4389 31.306C44.6087 32.7181 45.8153 34.1736 47.0481 34.9014C48.412 35.7052 49.33 35.9714 50.1798 35.9714C50.8146 35.9714 51.4178 35.8247 52.1365 35.6455C52.3516 35.6672 52.5824 35.6781 52.829 35.6781C55.4047 35.6781 59.3705 34.619 62.6177 33.7554C63.5934 33.4947 64.5167 33.2503 65.3246 33.0548C65.356 33.044 65.3875 33.0277 65.4085 33.0005C66.3265 31.7568 66.0118 29.014 65.2983 26.847V26.8524Z" fill="white"/>
<path d="M52.829 35.7267C52.5719 35.7267 52.3359 35.7159 52.1103 35.6941C49.2303 35.4171 44.892 30.1978 41.755 25.8691L41.5714 25.6139C39.793 23.159 38.9799 22.0402 38.4081 21.9044C38.1563 21.8447 37.1072 21.7958 35.9898 21.7415C34.201 21.6546 32.1708 21.5568 31.62 21.3667C31.0902 21.182 30.6233 20.7747 30.3138 20.3402C28.9027 20.4 27.7748 19.96 27.2188 19.1454C26.8463 18.6022 26.7729 17.9451 27.0142 17.3368C27.0456 17.2607 27.1191 17.201 27.1978 17.2173C27.4968 17.2336 29.0391 17.2879 30.8226 17.3476C33.2252 17.4291 36.2206 17.5323 37.7104 17.5975C40.1498 17.7061 43.8114 19.6124 45.7733 20.7421C46.1562 20.9648 46.8435 21.5351 47.7143 22.2574C49.928 24.0932 53.2696 26.8739 55.2473 26.9337C57.3876 27.0043 59.4072 25.7714 61.3535 24.5765C61.9305 24.2235 62.4708 23.8922 63.0164 23.5935C63.0584 23.5718 63.1056 23.5663 63.1528 23.5772C63.9082 23.7836 64.716 25.0002 65.3193 26.8305C66.038 29.0084 66.3475 31.7674 65.4242 33.022C65.398 33.06 65.3613 33.0817 65.3141 33.0926C64.5115 33.2881 63.5882 33.5325 62.6125 33.7932C59.3653 34.6568 55.3994 35.7159 52.8132 35.7159L52.829 35.7267ZM30.5866 20.0632C30.8331 20.438 31.2423 20.8236 31.7459 20.9974C32.2443 21.1712 34.3321 21.2689 36.0108 21.3504C37.2383 21.4102 38.2088 21.459 38.4921 21.5242C39.2003 21.6871 39.9294 22.6919 41.8756 25.3803L42.0592 25.6356C46.429 31.6642 50.0067 35.0967 52.147 35.3031C54.5968 35.5366 58.9981 34.3635 62.539 33.4239C63.4885 33.1686 64.3908 32.9297 65.1829 32.7341C65.9698 31.5719 65.6341 28.9432 64.9836 26.9662C64.459 25.3749 63.7456 24.2235 63.1475 23.99C62.6334 24.2778 62.1141 24.5928 61.5685 24.9241C59.5699 26.1461 57.5135 27.4062 55.2525 27.3356C53.149 27.2704 49.7444 24.4407 47.4939 22.5724C46.6389 21.8609 45.9622 21.2961 45.6054 21.0952C43.6697 19.9818 40.0711 18.1026 37.7104 17.9994C36.2259 17.9342 33.2305 17.831 30.8279 17.7496C29.1702 17.6952 27.822 17.6464 27.3342 17.6246C27.1978 18.07 27.2712 18.5371 27.5387 18.9281C27.9899 19.5907 28.9132 19.96 30.0935 19.96C30.0095 19.7808 29.9623 19.607 29.9518 19.4549C29.9518 19.3898 29.9728 19.33 30.02 19.2866C30.5131 18.8684 31.8036 18.8847 33.2987 18.9064C33.9072 18.9118 34.5419 18.9227 35.1347 18.901C37.5636 18.8141 39.3576 19.0748 40.1602 19.33C41.0311 19.607 43.6802 21.8609 43.7904 21.9533C43.8691 22.0239 43.8848 22.1488 43.8166 22.2303C43.7484 22.3117 43.6278 22.328 43.5491 22.2574C42.7989 21.6165 40.7111 19.9166 40.0501 19.7048C39.2737 19.4604 37.5268 19.2051 35.1505 19.292C34.5419 19.3137 33.9072 19.3029 33.2934 19.2974C32.0764 19.2811 30.8174 19.2648 30.3505 19.531C30.382 19.6722 30.4554 19.8406 30.5604 20.0143C30.5708 20.0306 30.5813 20.0469 30.5918 20.0632H30.5866Z" fill="#4242E9"/>
<path d="M29.1708 23.1211C28.001 23.1211 27.3033 22.3987 27.1197 22.0891C27.0882 22.0348 26.9885 21.8665 27.0777 21.7253C27.1197 21.6546 27.2141 21.5895 27.6705 21.2745C28.1689 20.9323 28.9138 20.4218 29.3964 19.9764C29.4751 19.9058 29.5957 19.9112 29.6639 19.9927C29.7321 20.0742 29.7269 20.1991 29.6482 20.2697C29.1498 20.7314 28.3839 21.2527 27.8803 21.6003C27.7177 21.7144 27.5498 21.8284 27.4554 21.8991C27.6233 22.1706 28.3367 22.8441 29.4961 22.7029C30.9544 22.5236 32.2764 21.193 32.2921 21.1767C32.3655 21.1007 32.4862 21.1007 32.5596 21.1767C32.6331 21.2527 32.6331 21.3777 32.5596 21.4537C32.5019 21.5134 31.1328 22.893 29.5433 23.0885C29.4174 23.1048 29.2967 23.1102 29.1761 23.1102L29.1708 23.1211Z" fill="#4242E9"/>
<path d="M50.201 36.0203C49.3406 36.0203 48.3964 35.7596 47.0325 34.9503C45.7944 34.2171 44.5827 32.7561 43.4128 31.344C42.4004 30.122 41.4404 28.9652 40.685 28.6013C40.0398 28.2863 39.1847 27.9441 38.3558 27.6128C36.7926 26.9882 35.8273 26.5809 35.5493 26.2713C35.3552 26.0541 34.7729 25.3969 34.9775 24.8049C35.1244 24.3867 35.6018 24.1206 36.4359 24.0011C38.6129 23.6915 42.1853 25.8205 42.5001 26.2442C42.563 26.3311 42.5473 26.456 42.4633 26.5212C42.3794 26.5863 42.2587 26.57 42.1958 26.4831C41.9755 26.1844 38.5709 24.0826 36.4883 24.3921C35.8221 24.4899 35.4234 24.68 35.3342 24.9407C35.2503 25.1851 35.4182 25.5435 35.8273 26.0052C36.0634 26.2713 37.3539 26.7873 38.4922 27.2435C39.3263 27.5802 40.1866 27.9224 40.8424 28.2428C41.6712 28.6447 42.6574 29.8287 43.6961 31.0888C44.7925 32.414 46.0358 33.913 47.2161 34.6082C49.4875 35.9551 50.4055 35.727 52.079 35.3088C52.1839 35.2816 52.2836 35.3468 52.3098 35.4554C52.336 35.564 52.2731 35.6672 52.1681 35.6944C51.46 35.8682 50.8514 36.0203 50.201 36.0203Z" fill="#4242E9"/>
<path d="M41.0892 18.8522C41.0892 18.8522 41.042 18.8522 41.0158 18.8359L40.9266 18.7979C37.8106 17.4836 36.027 16.8373 35.6283 16.8481C35.0198 16.8807 33.0054 17.2174 32.0664 17.7551C31.972 17.8094 31.8565 17.7714 31.8093 17.6791C31.7569 17.5813 31.7936 17.4618 31.8828 17.413C32.89 16.8318 34.9568 16.4951 35.6073 16.4571C36.2158 16.4136 38.8493 17.4944 41.0682 18.434L41.1574 18.472C41.2571 18.5155 41.2991 18.6295 41.2623 18.7273C41.2309 18.8033 41.1627 18.8522 41.084 18.8522H41.0892Z" fill="#4242E9"/>
<path d="M31.1639 23.5069C30.5239 23.5069 29.8787 23.344 29.4171 23.0724C29.3279 23.0181 29.2964 22.8986 29.3436 22.8009C29.3961 22.7086 29.5115 22.676 29.6059 22.7248C30.3561 23.1702 31.7515 23.2734 32.4911 22.752C33.3357 22.16 34.5527 21.3127 34.5527 21.3127L34.7626 21.6386C34.7626 21.6386 33.5508 22.4804 32.7062 23.0724C32.2865 23.3657 31.7252 23.4961 31.1639 23.4961V23.5069Z" fill="#4242E9"/>
<path d="M39.4571 48.2402C39.0689 47.6699 38.3974 47.3006 37.5371 47.1431C38.004 46.7521 38.602 46.3393 39.0217 46.0514C39.4623 45.7473 39.562 45.6767 39.604 45.6169C39.6721 45.5137 39.6092 45.3888 39.562 45.3019C39.3679 44.9761 38.5758 44.1614 37.2276 44.308C36.3673 43.8247 34.8984 43.7106 34.0276 44.3135C33.2722 44.8457 32.223 45.5735 32.008 45.7201C31.5778 45.6984 31.1424 45.6767 30.7175 45.655C29.6001 45.6006 28.551 45.5518 28.2939 45.492C27.7064 45.3562 26.8933 44.232 25.1097 41.7717L25.0415 41.6793C26.1641 42.3691 28.2257 43.3521 29.7995 43.3521C29.9568 43.3521 30.1142 43.3413 30.2611 43.3196C31.0795 43.2001 31.5463 42.9448 31.688 42.5429C31.8821 41.9726 31.3103 41.3317 31.1214 41.1199C30.8329 40.7941 29.6736 40.327 28.3306 39.7893C27.507 39.458 26.652 39.1158 26.0015 38.8008C25.2408 38.4315 24.2808 37.2747 23.2631 36.0472C22.0933 34.6351 20.8815 33.1796 19.654 32.4518C17.2776 31.0451 16.2495 31.2895 14.5655 31.7077C12.0528 31.4796 7.63578 32.6527 4.08435 33.5978C3.10862 33.8585 2.18535 34.1029 1.38274 34.2984C1.35126 34.3092 1.31979 34.3255 1.2988 34.3527C0.380782 35.5964 0.695532 38.3392 1.40897 40.5062C2.00699 42.3202 2.80961 43.5314 3.54927 43.7323C3.58599 43.7432 3.62271 43.7378 3.65943 43.7215C4.205 43.4227 4.74532 43.0914 5.32237 42.7384C7.27907 41.5436 9.29347 40.3053 11.4548 40.3759C13.4482 40.441 16.795 43.2218 19.0088 45.063C19.8796 45.7853 20.5668 46.3556 20.9445 46.5783C22.0933 47.2409 23.8297 48.1696 25.5608 48.8485L25.6553 48.8919C27.8375 49.8152 30.4132 50.8634 31.069 50.8634C31.0795 50.8634 31.0899 50.8634 31.1004 50.8634C31.7404 50.8254 33.7548 50.4941 34.7673 49.9347C35.145 49.9456 35.5122 49.9619 35.8689 49.9727C37.6577 50.0325 39.2053 50.0868 39.5043 50.1031H39.5095C39.5672 50.1031 39.6249 50.0651 39.6459 50.0108C39.882 49.4188 39.8085 48.7724 39.4466 48.2402H39.4571Z" fill="white"/>
<path d="M39.5202 50.1518H39.5097C39.2107 50.1355 37.6684 50.0812 35.8848 50.0214C33.4822 49.94 30.4868 49.8368 28.997 49.7716C26.5577 49.663 22.8961 47.7566 20.9341 46.627C20.5512 46.4043 19.864 45.834 18.9932 45.1117C16.7794 43.2759 13.4378 40.4952 11.4601 40.4354C9.32508 40.3648 7.30019 41.6031 5.34873 42.7926C4.77169 43.1456 4.23137 43.4769 3.6858 43.7756C3.64383 43.7973 3.59662 43.8028 3.54941 43.7919C2.79401 43.5855 1.98615 42.3689 1.38288 40.5386C0.664195 38.3607 0.354691 35.6017 1.27796 34.3471C1.30419 34.3091 1.34091 34.2874 1.38812 34.2765C2.19074 34.081 3.114 33.8366 4.08973 33.5759C7.6569 32.6254 12.0949 31.4469 14.6076 31.6858C17.4876 31.9628 21.8259 37.1822 24.9629 41.5108L25.1518 41.7661C26.9301 44.221 27.738 45.3398 28.3098 45.4701C28.5616 45.5299 29.6108 45.5787 30.7281 45.6331C32.517 45.72 34.5471 45.8177 35.0979 46.0078C35.6277 46.1925 36.0946 46.5998 36.4041 47.0343C37.8205 46.98 38.9431 47.4145 39.4992 48.2292C39.8716 48.7723 39.9451 49.4294 39.7038 50.0377C39.6723 50.1138 39.6041 50.1572 39.5254 50.1572L39.5202 50.1518ZM11.287 40.0335C11.35 40.0335 11.4077 40.0335 11.4706 40.0335C13.5742 40.0987 16.9788 42.9283 19.2292 44.7967C20.0843 45.5081 20.761 46.073 21.1177 46.2739C23.0535 47.3873 26.6469 49.2665 29.0127 49.3697C30.4973 49.4349 33.4927 49.5381 35.8953 49.6195C37.553 49.6739 38.9011 49.7227 39.389 49.7445C39.5254 49.2991 39.452 48.832 39.1844 48.441C38.7333 47.7784 37.81 47.4091 36.6297 47.4091C36.7136 47.5883 36.7608 47.7621 36.7713 47.9142C36.7713 47.9793 36.7504 48.0391 36.7031 48.0825C36.21 48.5007 34.9196 48.4844 33.4245 48.4627C32.816 48.4573 32.1812 48.4464 31.5832 48.4681C29.1544 48.555 27.3603 48.2943 26.5577 48.0391C25.6869 47.7621 23.0377 45.5081 22.9276 45.4158C22.8489 45.3452 22.8331 45.2203 22.9013 45.1388C22.9695 45.0574 23.0902 45.0411 23.1689 45.1117C23.919 45.7525 26.0069 47.4525 26.6678 47.6643C27.4442 47.9087 29.1911 48.164 31.5675 48.0771C32.176 48.0554 32.8107 48.0608 33.4245 48.0717C34.6415 48.0879 35.9005 48.1042 36.3674 47.8381C36.3359 47.6969 36.2625 47.5285 36.1576 47.3547C36.1471 47.3384 36.1366 47.3222 36.1261 47.3059C35.8795 46.9311 35.4704 46.5455 34.9668 46.3717C34.4684 46.1979 32.3806 46.1001 30.7019 46.0187C29.4744 45.9589 28.5039 45.91 28.2206 45.8449C27.5124 45.6819 26.7833 44.6772 24.8423 41.9942L24.6534 41.7389C20.2836 35.7103 16.706 32.2778 14.5657 32.0714C12.1159 31.8325 7.71461 33.011 4.17366 33.9506C3.22417 34.2059 2.32188 34.4449 1.52976 34.6404C0.742883 35.8026 1.07862 38.4313 1.7291 40.4083C2.25369 41.9996 2.96712 43.151 3.56515 43.3846C4.07924 43.0967 4.59858 42.7817 5.14415 42.4504C7.08511 41.261 9.09426 40.0335 11.2765 40.0335H11.287Z" fill="#4242E9"/>
<path d="M37.1959 47.4419C37.1435 47.4419 37.091 47.4201 37.0543 47.3767C36.9861 47.2952 36.9914 47.1703 37.07 47.0997C37.5684 46.6381 38.3343 46.1112 38.8379 45.7691C39.0005 45.655 39.1684 45.541 39.2628 45.4704C39.0949 45.1988 38.3815 44.5308 37.2222 44.6665C35.7638 44.8458 34.4419 46.1764 34.4261 46.1927C34.3527 46.2687 34.232 46.2687 34.1586 46.1927C34.0852 46.1167 34.0852 45.9917 34.1586 45.9157C34.2163 45.856 35.5855 44.4764 37.175 44.2809C38.5704 44.1071 39.3939 44.949 39.5933 45.2911C39.6248 45.3454 39.7244 45.5138 39.6353 45.655C39.5933 45.7256 39.4989 45.7908 39.0425 46.1058C38.5441 46.448 37.7992 46.9585 37.3166 47.4038C37.2799 47.4364 37.2327 47.4527 37.1907 47.4527L37.1959 47.4419Z" fill="#4242E9"/>
<path d="M29.8148 43.4064C27.6326 43.4064 24.5113 41.5272 24.2175 41.1307C24.1546 41.0438 24.1703 40.9189 24.2542 40.8537C24.3382 40.7885 24.4588 40.8048 24.5218 40.8917C24.7421 41.1904 28.1467 43.2869 30.2293 42.9827C30.8955 42.885 31.2942 42.6949 31.3834 42.4342C31.4673 42.1898 31.2994 41.8313 30.8902 41.3697C30.6542 41.1035 29.3637 40.5876 28.2254 40.1314C27.3913 39.7946 26.5309 39.4525 25.8752 39.132C25.0464 38.7301 24.0654 37.5461 23.0215 36.2861C21.9251 34.9609 20.6818 33.4619 19.5015 32.7667C17.2301 31.4198 16.312 31.6533 14.6386 32.0661C14.5389 32.0932 14.434 32.0281 14.4078 31.9194C14.3816 31.8163 14.4445 31.7076 14.5494 31.6805C16.1966 31.2731 17.2878 31.0016 19.6904 32.4245C20.9284 33.1577 22.1402 34.6187 23.31 36.0308C24.3224 37.2529 25.2824 38.4097 26.0378 38.7736C26.6831 39.0886 27.5381 39.4307 28.367 39.762C29.9303 40.3866 30.8955 40.794 31.1735 41.1035C31.3676 41.3208 31.9499 41.978 31.7453 42.57C31.5984 42.9882 31.1211 43.2543 30.287 43.3738C30.1401 43.3955 29.9827 43.4064 29.8201 43.4064H29.8148Z" fill="#4242E9"/>
<path d="M31.0791 50.9123C30.4181 50.9123 27.8371 49.8587 25.6496 48.9354L25.5604 48.8973C25.4608 48.8539 25.4188 48.7398 25.4555 48.6421C25.4975 48.5389 25.6076 48.49 25.7021 48.5334L25.7913 48.5715C28.9073 49.8858 30.6909 50.5321 31.0896 50.5213C31.6981 50.4887 33.7125 50.1519 34.6515 49.6142C34.7459 49.5599 34.8613 49.598 34.9085 49.6903C34.961 49.788 34.9243 49.9075 34.8351 49.9564C33.8279 50.5376 31.761 50.8743 31.1105 50.9123C31.1 50.9123 31.0896 50.9123 31.0791 50.9123Z" fill="#4242E9"/>
<path d="M32.16 46.0516L31.9502 45.7257C31.9502 45.7257 33.162 44.8839 34.0066 44.2919C34.9036 43.6673 36.4301 43.7922 37.2957 44.3027C37.3849 44.357 37.4164 44.4765 37.3692 44.5743C37.3167 44.6666 37.2013 44.6992 37.1069 44.6503C36.3567 44.205 34.9613 44.1018 34.2216 44.6232C33.3771 45.2152 32.16 46.0624 32.16 46.0624V46.0516Z" fill="#4242E9"/>
<path d="M33.8758 40.7614C33.7551 40.7614 33.6554 40.6745 33.6344 40.5496L32.6692 35.1618L27.4653 34.1625C27.3499 34.1408 27.2607 34.0322 27.2607 33.9127C27.2607 33.7932 27.3447 33.6846 27.4653 33.6628L32.6692 32.6635L33.6344 27.2758C33.6554 27.1563 33.7603 27.064 33.8758 27.064C33.9912 27.064 34.0961 27.1509 34.1171 27.2758L35.0823 32.6635L40.2862 33.6628C40.4016 33.6846 40.4908 33.7932 40.4908 33.9127C40.4908 34.0322 40.4068 34.1408 40.2862 34.1625L35.0823 35.1618L34.1171 40.5496C34.0961 40.669 33.9912 40.7614 33.8758 40.7614ZM28.866 33.9127L32.9263 34.6948C33.0259 34.7165 33.1046 34.7979 33.1256 34.9011L33.881 39.1049L34.6364 34.9011C34.6574 34.7979 34.7361 34.7165 34.8357 34.6948L38.896 33.9127L34.8357 33.1306C34.7361 33.1089 34.6574 33.0274 34.6364 32.9242L33.881 28.7205L33.1256 32.9242C33.1046 33.0274 33.0259 33.1089 32.9263 33.1306L28.866 33.9127Z" fill="#E8BB2A"/>
<path d="M31.9086 33.3207C31.8299 33.3207 31.7513 33.2827 31.704 33.2121L29.1703 29.394C29.1021 29.2908 29.1126 29.155 29.2018 29.0681C29.2857 28.9812 29.4169 28.9704 29.5165 29.0355L33.2044 31.6588C33.3145 31.7403 33.346 31.8978 33.2673 32.0173C33.1886 32.1367 33.0365 32.1639 32.9211 32.0824L30.3349 30.2413L32.1132 32.9188C32.1919 33.0329 32.1604 33.1958 32.0503 33.2773C32.0083 33.3099 31.9611 33.3207 31.9086 33.3207Z" fill="#E8BB2A"/>
<path d="M29.3749 38.828C29.312 38.828 29.249 38.8009 29.2018 38.752C29.1179 38.6651 29.1074 38.5293 29.1704 38.4261L31.7041 34.608C31.7828 34.4885 31.9349 34.4613 32.0503 34.5428C32.1657 34.6243 32.192 34.7818 32.1133 34.9013L30.3349 37.5788L32.9211 35.7377C33.0313 35.6562 33.1887 35.6888 33.2674 35.8028C33.346 35.9169 33.3146 36.0798 33.2044 36.1613L29.5166 38.7846C29.4746 38.8171 29.4274 38.828 29.3749 38.828Z" fill="#E8BB2A"/>
<path d="M38.3819 38.828C38.3347 38.828 38.2823 38.8117 38.2403 38.7846L34.5525 36.1613C34.4423 36.0798 34.4108 35.9223 34.4895 35.8028C34.5682 35.6834 34.7203 35.6562 34.8357 35.7377L37.4219 37.5788L35.6436 34.9013C35.5649 34.7872 35.5964 34.6243 35.7065 34.5428C35.8167 34.4613 35.9741 34.4939 36.0528 34.608L38.5865 38.4261C38.6547 38.5293 38.6442 38.6651 38.555 38.752C38.5078 38.8008 38.4449 38.828 38.3819 38.828Z" fill="#E8BB2A"/>
<path d="M35.8482 33.3208C35.801 33.3208 35.7485 33.3045 35.7065 33.2774C35.5964 33.1959 35.5649 33.0384 35.6436 32.9189L37.4219 30.2414L34.8357 32.0825C34.7256 32.164 34.5682 32.1314 34.4895 32.0174C34.4108 31.9033 34.4423 31.7404 34.5525 31.6589L38.2403 29.0356C38.34 28.965 38.4711 28.9813 38.555 29.0682C38.639 29.1551 38.6495 29.2909 38.5865 29.3941L36.0528 33.2122C36.0056 33.2828 35.9269 33.3208 35.8482 33.3208Z" fill="#E8BB2A"/>
</svg>
