<svg width="219" height="190" viewBox="0 0 219 190" fill="none" xmlns="http://www.w3.org/2000/svg">
<g clip-path="url(#clip0_48_352)">
<path d="M109.951 176.551C66.206 176.551 30.6101 141.046 30.6101 97.4122C30.6101 53.7783 66.1977 18.2731 109.951 18.2731C153.705 18.2731 189.293 53.7783 189.293 97.4122C189.293 141.046 153.697 176.551 109.951 176.551ZM109.951 19.5452C66.91 19.5452 31.8855 54.4722 31.8855 97.4122C31.8855 140.352 66.9017 175.279 109.951 175.279C153.001 175.279 188.017 140.352 188.017 97.4122C188.017 54.4722 152.993 19.5452 109.951 19.5452Z" fill="white"/>
<path d="M37.6333 30.8708C37.7161 30.9369 37.6333 31.1434 37.3766 31.4986C37.0867 31.8869 37.0204 32.2421 37.1612 32.556C37.302 32.8699 37.6664 33.4647 38.2544 34.3321C39.2814 35.8521 40.1427 37.1656 40.8384 38.2643C42.0227 40.1478 43.1988 41.9321 44.3583 43.6173C44.4576 43.7578 44.4825 43.8652 44.4328 43.923C44.3914 43.9726 44.3003 43.9891 44.1678 43.956C44.0353 43.923 43.5715 43.7908 42.793 43.5513C41.7908 43.2208 40.7556 42.9152 39.7038 42.626C38.8756 42.403 38.0308 42.1552 37.1695 41.8908C38.329 43.9065 39.5713 45.9799 40.8881 48.1113C40.9792 48.2434 40.9958 48.3426 40.9544 48.4086C40.913 48.4582 40.7804 48.4499 40.5568 48.3921C39.5713 48.1278 35.5794 46.8969 28.5811 44.6912C28.0842 44.5343 27.7695 44.4599 27.6121 44.4517C27.463 44.4517 27.2726 44.5839 27.0407 44.8565C26.6431 45.3273 26.3864 45.5091 26.2622 45.4182C26.1711 45.3521 26.1876 45.2282 26.3119 45.0713C26.3698 45.0052 26.4195 44.9473 26.4692 44.906C26.9164 44.3939 27.3719 43.8321 27.8523 43.2208C27.9434 43.1052 28.1008 42.8821 28.3078 42.5682C28.5149 42.2543 28.8047 41.866 29.1774 41.3869L29.3099 41.2217C29.4424 41.0482 29.5584 40.9986 29.6495 41.073C29.7654 41.1639 29.7075 41.3621 29.4756 41.676C29.0118 42.3121 28.8544 42.6839 29.0035 42.7995C29.2851 43.0143 32.631 44.1213 39.0495 46.1204C37.8652 44.1295 37.0039 42.6591 36.449 41.7008L31.4135 40.1973C31.1402 40.1147 30.9332 40.1065 30.7924 40.1643C30.6516 40.2221 30.4611 40.3873 30.2292 40.6682C29.9973 40.9491 29.84 41.0482 29.7654 40.9904C29.6578 40.9078 29.6826 40.7591 29.8483 40.5443C29.9725 40.3873 30.1381 40.1973 30.3369 39.9826C30.5357 39.7678 30.8587 39.3713 31.3059 38.8013L32.2003 37.653L33.4923 35.9926C33.7822 35.6208 34.1135 35.1582 34.4862 34.613C34.5276 34.5469 34.5773 34.4726 34.6352 34.3982C34.8257 34.1586 34.9665 34.076 35.0742 34.1586C35.1736 34.233 35.1487 34.3569 35.0162 34.5221L34.8174 34.7782C34.4613 35.2326 34.2625 35.6208 34.2046 35.9513C34.1797 36.0917 34.3951 36.5543 34.8588 37.3473C35.0493 37.686 35.364 38.256 35.8195 39.0656C35.9272 39.2391 36.0846 39.5117 36.2999 39.8586C36.5566 39.9413 37.2855 40.156 38.4946 40.4947C40.0351 40.916 41.3436 41.3043 42.4203 41.6347C41.2277 39.8091 39.8115 37.6447 38.1799 35.1499C37.3103 33.8282 36.8051 33.1095 36.6726 33.0104C36.4821 32.8617 36.2502 32.9608 35.9686 33.316C35.5877 33.8117 35.3392 34.0099 35.2232 33.9273C35.1239 33.853 35.1487 33.7126 35.3061 33.506C35.4386 33.3326 35.5545 33.2004 35.6456 33.1095C35.8444 32.9113 36.0183 32.7213 36.1591 32.5395L37.095 31.3334C37.3269 31.036 37.4677 30.8791 37.5174 30.8626C37.567 30.846 37.6002 30.8626 37.6333 30.8791V30.8708ZM32.8463 37.3886L32.7055 37.5704L32.5068 37.8265C32.2417 38.2065 32.1672 38.4378 32.2831 38.5204C32.2997 38.5369 33.4095 38.9169 35.6042 39.6604C35.2812 39.0408 34.8174 38.256 34.2294 37.306C34.1549 37.1821 34.0555 37.0086 33.9395 36.7773L33.8402 36.6534C33.658 36.513 33.3267 36.7526 32.838 37.3804L32.8463 37.3886Z" fill="white"/>
<path d="M56.2761 27.963C56.2761 27.963 56.4997 28.2438 56.8558 28.6982C57.212 29.1525 57.5598 29.5738 57.8994 29.9704L58.3135 30.4495C57.3114 31.2012 55.4065 32.7791 52.5906 35.1747C52.2511 35.4638 51.9198 35.753 51.5885 36.0338C51.2572 36.3147 51.0336 36.5047 50.9177 36.6038L50.7686 36.7278C50.5864 36.8847 50.4622 36.926 50.3959 36.8434C50.3545 36.7938 50.3545 36.736 50.4042 36.6782C50.429 36.6534 50.603 36.4882 50.926 36.166C51.1661 35.9347 51.2655 35.7447 51.249 35.6125C51.2241 35.4804 51.0585 35.2243 50.7438 34.8608L43.7289 26.6743C43.4887 26.3934 43.3065 26.2612 43.174 26.2778C43.0498 26.2943 42.7599 26.4925 42.3127 26.8725C42.1554 27.0047 42.0477 27.0295 41.9732 26.9469C41.8986 26.8643 41.9731 26.7321 42.1885 26.5504L44.6814 24.4273C44.7725 24.353 45.3191 23.8821 46.3295 23.0312C47.3399 22.1721 48.019 21.5938 48.3668 21.2965C48.6567 21.0486 48.9052 20.8008 49.1205 20.553C49.4932 20.9495 50.0315 21.4947 50.7355 22.1721L51.3318 22.7504C51.3815 22.7917 51.4394 22.8495 51.5057 22.9238C51.5885 23.023 51.5885 23.1056 51.5057 23.1799C51.398 23.2708 51.2158 23.2212 50.9591 23.0147C50.0232 22.296 49.2447 21.9986 48.6319 22.1225C48.1681 22.2134 47.2819 22.8165 45.9568 23.9399L44.7642 24.956L48.4248 29.2269L48.7726 28.9295C49.8576 28.0043 50.4539 27.3599 50.545 26.9882C50.6361 26.6165 50.3959 26.0052 49.7996 25.1378C49.6423 24.9147 49.6091 24.766 49.7002 24.6917C49.8079 24.6008 49.9321 24.6421 50.0812 24.8156C50.2303 24.9891 50.4373 25.2534 50.7106 25.6086C50.9839 25.9638 51.191 26.2282 51.3401 26.4017C52.2262 27.4425 52.8557 28.1365 53.2118 28.4999C53.3029 28.5908 53.3774 28.6652 53.4354 28.7395C53.5431 28.8634 53.5431 28.9708 53.4354 29.0617C53.3691 29.1195 53.2863 29.1195 53.1952 29.0617C53.1041 28.9956 52.8308 28.7643 52.3836 28.3595C51.8204 27.8556 51.2738 27.7069 50.7686 27.9052C50.545 27.996 50.0646 28.3512 49.3358 28.9791L48.6815 29.5325L52.8474 34.3982C54.9841 32.5808 56.2016 31.4656 56.4914 31.0691C57.0049 30.3834 56.8476 29.4582 56.0111 28.3017C55.8289 28.0456 55.7875 27.8721 55.8951 27.7812C55.9945 27.6986 56.127 27.7565 56.301 27.963H56.2761Z" fill="white"/>
<path d="M69.6099 21.4038C69.7838 21.693 70.0489 22.1721 70.405 22.8412L70.2228 22.9486C70.1565 22.9899 69.9909 23.0725 69.7259 23.1965C69.4608 23.3286 69.171 23.4856 68.8562 23.6756L62.0071 27.6986C61.8249 27.8143 61.7006 27.8143 61.6427 27.7151C61.593 27.6408 61.7172 27.5004 61.9988 27.3021C62.4046 27.0295 62.6199 26.8395 62.6613 26.7156C62.7027 26.5917 62.6199 26.3686 62.4129 26.0299L56.8888 16.8191C56.6486 16.4143 56.4664 16.2078 56.3422 16.1912C56.218 16.1747 55.9115 16.3151 55.4063 16.6208C55.1993 16.7447 55.0585 16.7447 54.984 16.6208C54.926 16.5217 54.9591 16.4308 55.0916 16.3565L55.2407 16.2656C55.6217 16.0838 56.3505 15.6708 57.4189 15.0265C57.5182 14.9686 57.7004 14.8447 57.982 14.663C58.2553 14.473 58.4872 14.3243 58.6777 14.2169L58.8599 14.1095C59.0587 13.9938 59.1912 13.9856 59.2574 14.093C59.2989 14.1591 59.2906 14.2169 59.2409 14.2665C59.1912 14.316 59.009 14.4482 58.6943 14.6465C58.3796 14.8447 58.2222 15.0099 58.2222 15.1421C58.2222 15.2743 58.363 15.5717 58.6446 16.0591L64.4502 25.7325C64.7567 25.5673 65.1625 25.3278 65.6925 25.0138C66.9762 24.2456 67.8376 23.6425 68.2848 23.1965C68.732 22.7504 68.9391 22.296 68.9059 21.8251C68.8728 21.3543 68.6906 20.8008 68.3593 20.173C68.2848 20.0243 68.3014 19.9169 68.4173 19.8508C68.5498 19.7682 68.6658 19.8095 68.7569 19.983L69.0053 20.396C69.0053 20.396 69.0467 20.4621 69.0964 20.5447C69.1461 20.6273 69.1875 20.7017 69.2372 20.776L69.6182 21.4121L69.6099 21.4038Z" fill="white"/>
<path d="M82.8362 15.8939C82.9604 16.1995 83.1426 16.72 83.3828 17.4469L83.1841 17.5213C83.1095 17.546 82.9356 17.6039 82.654 17.6865C82.3724 17.7691 82.0577 17.8765 81.7181 18.0086L74.2892 20.8421C74.0905 20.9165 73.9662 20.9082 73.9248 20.8008C73.8917 20.7182 74.0325 20.6026 74.3472 20.4539C74.7861 20.2556 75.0429 20.0986 75.1009 19.983C75.1588 19.8673 75.1174 19.636 74.9766 19.2643L71.0593 9.26865C70.8853 8.83082 70.7445 8.59126 70.6286 8.55821C70.5126 8.51691 70.1814 8.60778 69.6348 8.82256C69.4111 8.91343 69.2704 8.88865 69.2207 8.75648C69.1793 8.64908 69.2289 8.56648 69.3697 8.50865L69.5271 8.44256C69.9329 8.32691 70.7197 8.03778 71.8875 7.58343C71.9951 7.54213 72.2022 7.45126 72.5003 7.31082C72.8068 7.17039 73.0552 7.063 73.254 6.98865L73.4527 6.9143C73.6681 6.83169 73.8006 6.84821 73.842 6.96387C73.8668 7.03821 73.8586 7.09604 73.8006 7.13735C73.7426 7.17865 73.5438 7.27778 73.2043 7.42648C72.8647 7.57517 72.6825 7.70734 72.6577 7.83126C72.6328 7.95517 72.7239 8.27734 72.9227 8.80604L77.0388 19.2973C77.3618 19.1817 77.8091 19.0165 78.3805 18.7934C79.7719 18.2482 80.7243 17.8021 81.2378 17.4304C81.7513 17.0587 82.0329 16.6456 82.0826 16.1747C82.1322 15.7039 82.0411 15.1339 81.8175 14.4565C81.7678 14.2995 81.8092 14.1921 81.9335 14.1426C82.0826 14.0847 82.1819 14.1426 82.2399 14.3326L82.4138 14.7786C82.4138 14.7786 82.447 14.853 82.4801 14.9356C82.5132 15.0182 82.5463 15.1008 82.5795 15.1834L82.8528 15.8773L82.8362 15.8939Z" fill="white"/>
<path d="M96.1784 1.03257C96.2032 1.15648 96.0542 1.24735 95.7394 1.29692L95.3254 1.37953L94.9858 1.44561C94.787 1.48692 94.6711 1.54474 94.6462 1.61909C94.6214 1.69344 94.6462 1.90822 94.7125 2.25518L96.8492 13.0356C96.9817 13.6965 97.048 14.0847 97.0646 14.2004C97.0728 14.316 97.048 14.3821 96.9817 14.3904C96.9072 14.4069 96.8078 14.3491 96.6753 14.2334L93.5779 11.2017C91.7807 9.43387 89.5777 7.2117 86.9771 4.54344L89.0642 15.0347C89.1056 15.2 89.2215 15.2826 89.412 15.2908C89.5942 15.2908 90.0249 15.2413 90.704 15.1256C90.8697 15.0926 90.9608 15.1256 90.9773 15.2247C91.0022 15.3487 90.8531 15.4395 90.5301 15.5056C90.4141 15.5304 90.058 15.58 89.4452 15.6626C89.2464 15.6874 89.0476 15.7204 88.8571 15.7617C88.8737 15.7617 88.766 15.7947 88.5341 15.8608C88.3105 15.9269 87.9544 16.0095 87.4823 16.1087L87.2918 16.15C87.002 16.2078 86.8446 16.183 86.8281 16.0674C86.8032 15.9517 86.9192 15.8774 87.1676 15.8278C87.9047 15.6708 88.3271 15.5387 88.4265 15.4313C88.5259 15.3239 88.5341 15.0513 88.443 14.5969L86.6044 5.34474C86.3974 4.30387 86.0578 3.70083 85.5775 3.51909C85.3539 3.42822 84.9812 3.43648 84.4677 3.54387C84.1447 3.60996 83.9625 3.57692 83.9376 3.44474C83.9128 3.32909 83.9956 3.24648 84.1861 3.21344C84.4346 3.16387 84.7576 3.11431 85.1551 3.06474C85.5444 3.01518 85.7597 2.98213 85.7845 2.98213C85.8259 2.98213 85.9999 2.93257 86.3063 2.85822C86.7204 2.77561 87.1179 2.67648 87.4989 2.56083L95.8968 10.9291L94.2404 2.59387C94.1659 2.20561 94.1079 1.97431 94.0831 1.8917C94.0499 1.80909 93.992 1.75953 93.8926 1.73474C93.7932 1.70996 93.495 1.75127 92.9816 1.8504C92.5343 1.94127 92.2942 1.92474 92.2693 1.80909C92.2445 1.68518 92.3853 1.59431 92.6834 1.53648L93.3377 1.40431C93.5033 1.37127 93.6772 1.33822 93.8677 1.29692C94.0665 1.25561 94.1907 1.23083 94.2238 1.23083L94.5634 1.16474C94.7622 1.12344 94.9527 1.0904 95.1266 1.04909L95.7063 0.933439C95.9796 0.875613 96.1287 0.916918 96.1535 1.04083L96.1784 1.03257Z" fill="white"/>
<path d="M112.941 10.26C112.941 10.3095 112.941 10.6234 112.916 11.1934C112.9 11.7717 112.9 12.3169 112.908 12.8374V13.4652C111.666 13.4156 109.19 13.4239 105.487 13.49C105.04 13.49 104.601 13.5065 104.171 13.5147C103.74 13.5147 103.442 13.5313 103.293 13.5313H103.102C102.862 13.5313 102.738 13.49 102.738 13.3908C102.738 13.3247 102.771 13.2834 102.854 13.2669C102.895 13.2669 103.135 13.2421 103.583 13.2008C103.914 13.1678 104.113 13.0934 104.179 12.9778C104.245 12.8621 104.278 12.5565 104.27 12.0774L104.071 1.31344C104.071 0.941699 104.005 0.726917 103.897 0.652569C103.79 0.586482 103.442 0.553438 102.854 0.561699C102.647 0.561699 102.547 0.512134 102.547 0.404743C102.547 0.297351 102.688 0.239525 102.97 0.239525L106.241 0.181699C106.357 0.181699 107.078 0.165177 108.403 0.140395C109.728 0.115612 110.622 0.0990905 111.086 0.0908296C111.467 0.0908296 111.823 0.0495253 112.138 -0.00830078C112.171 0.536917 112.246 1.29692 112.353 2.26344L112.444 3.08126C112.461 3.14735 112.469 3.22996 112.469 3.32909C112.469 3.453 112.419 3.51909 112.304 3.51909C112.163 3.51909 112.055 3.36213 111.989 3.03996C111.724 1.8917 111.318 1.173 110.763 0.867351C110.349 0.644308 109.272 0.545177 107.541 0.578221L105.968 0.611264L106.067 6.22866H106.523C107.955 6.19561 108.825 6.0717 109.132 5.84866C109.438 5.62561 109.645 4.98953 109.736 3.94866C109.753 3.67605 109.827 3.54387 109.943 3.54387C110.084 3.54387 110.158 3.65126 110.158 3.88257C110.158 4.11387 110.158 4.45257 110.142 4.89866C110.125 5.34474 110.117 5.68344 110.125 5.91474C110.15 7.27779 110.192 8.21126 110.241 8.72344C110.258 8.84735 110.258 8.963 110.266 9.04561C110.266 9.21083 110.2 9.29344 110.059 9.29344C109.968 9.29344 109.91 9.24387 109.877 9.13648C109.844 9.02909 109.786 8.67387 109.695 8.07909C109.579 7.32735 109.256 6.873 108.734 6.69952C108.502 6.62518 107.906 6.6004 106.937 6.61692L106.075 6.63344L106.191 13.0274C108.999 12.9778 110.647 12.8869 111.127 12.7713C111.964 12.5647 112.428 11.7552 112.519 10.326C112.535 10.0121 112.618 9.85518 112.759 9.84692C112.883 9.84692 112.95 9.97909 112.958 10.2434L112.941 10.26Z" fill="white"/>
<path d="M126.134 11.1687C125.977 12.2509 125.43 13.1183 124.494 13.7626C123.559 14.407 122.507 14.6465 121.347 14.4813C120.668 14.3822 119.881 14.06 118.987 13.5065C118.747 13.3578 118.565 13.2752 118.44 13.2587C118.291 13.2422 118.167 13.3991 118.084 13.7461C118.043 13.9196 117.952 14.0022 117.803 13.9774C117.678 13.9609 117.62 13.8783 117.645 13.7213C117.662 13.6222 117.678 13.5478 117.695 13.4983C117.902 12.7465 118.059 12.0361 118.15 11.3835C118.167 11.2596 118.208 10.9044 118.266 10.3178C118.266 10.2352 118.266 10.1361 118.291 10.0122C118.316 9.82218 118.407 9.73958 118.556 9.76436C118.681 9.78088 118.747 9.9461 118.755 10.26C118.755 12.5731 119.666 13.8618 121.472 14.1178C122.242 14.2252 122.871 14.0931 123.36 13.7213C123.848 13.3496 124.147 12.7631 124.254 11.97C124.354 11.2596 124.238 10.6318 123.898 10.0783C123.559 9.52479 122.921 8.93001 121.993 8.29392C120.875 7.53392 120.122 6.84001 119.732 6.22045C119.343 5.60088 119.211 4.88218 119.327 4.0561C119.476 3.01523 119.939 2.1974 120.71 1.61088C121.48 1.02436 122.391 0.809576 123.426 0.958272C123.857 1.0161 124.428 1.2474 125.149 1.64392C125.397 1.78436 125.588 1.85871 125.712 1.88349C125.853 1.90001 125.944 1.88349 126.002 1.84218C126.051 1.80088 126.109 1.66871 126.184 1.46218C126.225 1.33827 126.308 1.28871 126.416 1.30523C126.54 1.32175 126.598 1.40436 126.573 1.56132C126.557 1.66045 126.54 1.73479 126.524 1.78436C126.441 2.08175 126.374 2.44523 126.308 2.87479C126.225 3.47784 126.184 3.96523 126.201 4.32871L126.176 4.63436C126.176 4.77479 126.101 4.83262 125.977 4.8161C125.836 4.79958 125.762 4.64262 125.753 4.33697C125.72 3.57697 125.48 2.90784 125.033 2.33784C124.586 1.76784 124.039 1.4374 123.393 1.34653C122.764 1.25566 122.225 1.38784 121.803 1.73479C121.38 2.08175 121.107 2.61045 121.008 3.30436C120.892 4.11392 121.074 4.79958 121.546 5.36958C121.811 5.69175 122.407 6.17914 123.352 6.82349C124.453 7.58349 125.223 8.31045 125.654 8.9961C126.085 9.68175 126.242 10.417 126.134 11.1935V11.1687Z" fill="white"/>
<path d="M139.079 14.6795C138.764 15.7286 138.093 16.4969 137.067 16.9925C136.04 17.4882 134.971 17.5708 133.845 17.2321C133.182 17.0338 132.462 16.596 131.667 15.9104C131.451 15.7286 131.286 15.613 131.17 15.5799C131.021 15.5386 130.88 15.679 130.739 16.0012C130.673 16.1747 130.565 16.2325 130.424 16.1912C130.3 16.1499 130.267 16.059 130.308 15.9186C130.342 15.8195 130.366 15.7534 130.391 15.7038C130.714 14.9934 130.971 14.316 131.161 13.6799C131.203 13.556 131.294 13.2173 131.435 12.6473C131.443 12.573 131.468 12.4738 131.509 12.3499C131.567 12.1682 131.667 12.1021 131.816 12.1434C131.94 12.1847 131.981 12.3499 131.94 12.6638C131.592 14.9521 132.296 16.3564 134.044 16.8851C134.789 17.1082 135.427 17.0751 135.965 16.7777C136.503 16.4803 136.884 15.9517 137.116 15.1834C137.323 14.4977 137.298 13.8617 137.05 13.2586C136.801 12.6556 136.263 11.9699 135.443 11.2099C134.458 10.2847 133.82 9.49165 133.53 8.81426C133.24 8.14513 133.215 7.40991 133.456 6.61687C133.762 5.60905 134.342 4.87383 135.195 4.41122C136.048 3.94861 136.975 3.87426 137.978 4.17165C138.392 4.29557 138.922 4.60948 139.576 5.11339C139.8 5.28687 139.973 5.39426 140.098 5.43557C140.23 5.47687 140.33 5.47687 140.388 5.43557C140.446 5.39426 140.52 5.28687 140.619 5.08861C140.677 4.97296 140.769 4.93165 140.876 4.9647C141 4.99774 141.034 5.08861 140.992 5.23731C140.959 5.33644 140.934 5.40252 140.909 5.45209C140.785 5.73296 140.661 6.07991 140.528 6.49296C140.354 7.07948 140.238 7.55035 140.197 7.90557L140.123 8.20296C140.098 8.34339 140.023 8.39296 139.899 8.35165C139.766 8.31035 139.717 8.14513 139.75 7.84774C139.833 7.08774 139.7 6.39383 139.344 5.75774C138.988 5.12991 138.499 4.71687 137.878 4.52687C137.265 4.34513 136.719 4.38644 136.247 4.66731C135.766 4.94818 135.427 5.42731 135.22 6.09644C134.979 6.88122 135.054 7.58339 135.435 8.21948C135.65 8.5747 136.164 9.1447 137 9.92948C137.978 10.8464 138.624 11.6808 138.947 12.4243C139.27 13.1677 139.311 13.9195 139.087 14.6712L139.079 14.6795Z" fill="white"/>
<path d="M158.782 28.7808C158.724 28.8717 158.616 28.8717 158.451 28.7808C158.343 28.7147 158.243 28.6486 158.169 28.5908L156.123 27.2691L154.003 26.0878C153.92 26.0465 153.837 26.0051 153.746 25.9556C153.531 25.8234 153.448 25.6995 153.523 25.5838C153.597 25.4599 153.788 25.4847 154.078 25.6582C155.047 26.2282 155.585 26.4182 155.693 26.2365C155.693 26.2282 155.709 26.1786 155.734 26.0878L155.858 25.5756L155.908 25.2947C156.016 24.8982 156.223 24.006 156.537 22.6182L153.034 20.5117C151.328 21.8665 150.392 22.6678 150.235 22.9321C150.144 23.0891 150.152 23.2212 150.268 23.3286C150.293 23.3617 150.558 23.5434 151.046 23.8821C151.353 24.0804 151.485 24.2291 151.427 24.3282C151.361 24.4356 151.187 24.4025 150.906 24.2373C150.4 23.9317 149.829 23.5599 149.191 23.1221C149.034 23.0147 148.868 22.9073 148.694 22.7999C148.52 22.6925 148.338 22.6099 148.156 22.5521C148.057 22.5191 147.982 22.486 147.924 22.453C147.775 22.3621 147.725 22.263 147.783 22.1638C147.841 22.0647 148.048 22.1143 148.396 22.3125C148.744 22.5108 149.026 22.6099 149.233 22.6017C149.44 22.6017 149.672 22.4943 149.912 22.2878C153.746 19.1073 156.844 16.5547 159.204 14.6465C159.304 14.5308 159.444 14.4234 159.618 14.2995L159.867 14.0434C159.974 13.9443 160.049 13.9112 160.107 13.9443C160.14 13.9608 160.148 14.0104 160.132 14.093C160.016 14.6051 159.8 15.6873 159.486 17.3395C159.237 18.6365 158.616 21.8747 157.614 27.0708C157.556 27.3682 157.573 27.5995 157.664 27.7482C157.755 27.8969 158.02 28.1034 158.434 28.376C158.716 28.5578 158.823 28.6982 158.765 28.7891L158.782 28.7808ZM156.703 22.1886C156.819 21.5938 157.018 20.6025 157.291 19.223L157.871 16.4804C156.678 17.4138 155.179 18.653 153.365 20.1895L156.703 22.1886Z" fill="white"/>
<path d="M169.606 37.3804C169.259 37.7852 168.745 37.6943 168.066 37.1078C167.312 36.4552 166.998 35.6374 167.114 34.6461C167.163 34.2165 167.271 33.8613 167.437 33.5639C167.602 33.2665 168.074 32.5644 168.853 31.4491C169.333 30.78 169.507 30.177 169.391 29.6317C169.275 29.0865 168.845 28.4752 168.099 27.7978L164.149 32.3413C163.983 32.5313 164.033 32.7874 164.298 33.1013C164.372 33.1839 164.588 33.3904 164.935 33.7044C165.06 33.8117 165.093 33.9026 165.027 33.977C164.952 34.0678 164.828 34.0348 164.67 33.8944L164.497 33.7457C164.405 33.6713 163.991 33.3078 163.238 32.6552C163.097 32.5313 162.848 32.3165 162.501 32.0191C162.161 31.7217 161.937 31.5317 161.838 31.4409L161.275 30.9535C161.059 30.7717 160.993 30.6313 161.068 30.5487C161.126 30.4826 161.3 30.5652 161.59 30.7965C162.053 31.1765 162.343 31.3335 162.476 31.2591C162.559 31.2426 162.741 31.0774 163.022 30.747L169.946 22.7835C170.277 22.3952 170.443 22.1309 170.426 21.9822C170.41 21.8335 170.203 21.5774 169.797 21.2057C169.557 20.9991 169.474 20.8504 169.549 20.7596C169.631 20.6687 169.747 20.6852 169.905 20.8174C169.938 20.8422 169.971 20.8835 170.021 20.9413L171.909 22.6513C172.099 22.8165 172.381 23.0478 172.737 23.3287C173.143 23.6344 173.424 23.8574 173.582 23.9896C174.476 24.7661 175.015 25.5757 175.197 26.4348C175.379 27.2939 175.164 28.0622 174.576 28.7396C173.988 29.417 173.234 29.7391 172.315 29.7061C171.395 29.673 170.435 29.3013 169.441 28.5744C169.341 28.5083 169.283 28.4835 169.259 28.4917C169.226 28.5331 169.259 28.5909 169.35 28.6735C170.211 29.7226 170.6 30.6809 170.517 31.5483C170.435 32.4157 169.847 33.597 168.753 35.1087C168.141 35.9678 168.066 36.5957 168.53 37.0004C168.671 37.1244 168.77 37.1574 168.82 37.0996C168.82 37.0996 168.828 37.0748 168.828 37.0583C168.869 36.9096 168.919 36.8022 168.985 36.7361C169.159 36.5378 169.358 36.5213 169.565 36.7113C169.797 36.9096 169.805 37.1326 169.598 37.3722L169.606 37.3804ZM172.894 27.5583C174.087 26.187 174.087 24.9726 172.894 23.9483C172.58 23.6757 172.323 23.527 172.132 23.5104C171.942 23.4939 171.752 23.6013 171.561 23.8244L168.372 27.4922C169.292 28.3017 170.103 28.7148 170.816 28.7148C171.528 28.723 172.224 28.343 172.894 27.5583Z" fill="white"/>
<path d="M185.996 42.2709C185.864 42.3782 185.756 42.37 185.657 42.2543C185.558 42.1387 185.615 41.9487 185.839 41.6926C185.996 41.5274 186.162 41.3622 186.328 41.1969C186.626 40.8335 186.833 40.4782 186.949 40.1148C187.106 39.6439 187.032 39.1317 186.734 38.5865C186.543 38.2313 186.361 37.9669 186.203 37.7852C185.814 37.3391 185.566 37.0582 185.483 36.9674L176.538 44.2782C176.182 44.5674 176.033 44.8482 176.1 45.1043C176.133 45.2448 176.331 45.5422 176.688 46.0048C176.779 46.1287 176.779 46.2196 176.704 46.2856C176.621 46.3517 176.514 46.3104 176.381 46.1535C176.315 46.0709 176.265 46.0048 176.224 45.9387C175.76 45.3356 175.42 44.9061 175.222 44.6582C174.957 44.3361 174.7 44.0304 174.443 43.7578C174.195 43.4852 173.888 43.13 173.524 42.6839C173.333 42.4609 173.284 42.3122 173.366 42.2461C173.458 42.1717 173.681 42.3452 174.037 42.7582C174.286 43.0639 174.518 43.2043 174.716 43.1878C174.832 43.1713 175.056 43.0309 175.387 42.7665L184.274 35.5052C183.462 34.5387 182.916 33.9687 182.634 33.8117C181.897 33.3739 180.994 33.5061 179.917 34.2082C179.594 34.423 179.396 34.4726 179.305 34.3652C179.205 34.2496 179.263 34.1009 179.47 33.9356C179.578 33.8448 179.694 33.7622 179.81 33.6878L180.174 33.44C180.655 33.1013 181.284 32.6552 182.079 32.11L182.626 32.7791L185.061 35.8274C185.342 36.1909 185.798 36.7443 186.419 37.4796L188.481 39.9C187.943 40.3709 187.181 41.1061 186.179 42.0974C186.146 42.1222 186.112 42.1552 186.079 42.2048C186.046 42.2543 186.021 42.2791 186.013 42.2874L185.996 42.2709Z" fill="white"/>
<path d="M216.59 75.9422C214.577 70.0769 211.902 66.1778 209.418 65.5169C209.302 65.4839 209.169 65.5004 209.053 65.5582C207.223 66.5248 205.401 67.5987 203.48 68.7304C196.929 72.5882 190.179 76.6278 182.915 76.3635C176.24 76.1569 165.01 67.1691 157.581 61.2213C154.666 58.8835 152.363 57.0413 151.088 56.3391C147.228 54.1995 141.415 51.2009 135.617 49.0117C135.617 49.0117 135.601 49.0035 135.601 48.9952L135.294 48.8713C127.857 45.8478 119.078 42.3452 117.041 42.5022C114.887 42.6261 108.138 43.6917 104.75 45.5091C103.516 45.4678 102.299 45.4265 101.123 45.3852C95.0852 45.1869 89.8759 45.0135 88.8655 44.9639C88.6501 44.9309 88.4596 45.0713 88.3768 45.2696C87.5818 47.1861 87.8219 49.2678 89.0394 50.9861C90.3397 52.82 92.6006 54.0261 95.4745 54.5217C93.9092 55.7774 91.8967 57.1074 90.4887 58.0409C89.0063 59.0156 88.6833 59.2469 88.5425 59.4452C88.3189 59.7839 88.5176 60.1887 88.6915 60.4695C89.2878 61.4443 91.5902 63.7326 95.4496 63.7326C95.7892 63.7326 96.1453 63.7078 96.5097 63.6665C98.0253 64.4843 100.088 64.9882 102.141 64.9882C104.005 64.9882 105.86 64.5835 107.243 63.65C109.777 61.94 113.297 59.5856 114.01 59.1065C115.451 59.1809 116.916 59.2469 118.341 59.313C122.076 59.4865 125.604 59.6517 126.457 59.8417C128.428 60.2796 131.153 63.9061 137.141 71.8695L137.348 72.1422C133.191 69.6887 125.24 66.0952 119.84 66.8552C117.09 67.2352 115.533 68.0613 115.061 69.3665C114.407 71.2004 116.32 73.2739 116.958 73.9595C117.935 75.0087 121.819 76.5204 126.317 78.2552C129.083 79.3291 131.948 80.4361 134.126 81.4439C136.686 82.6335 139.907 86.3756 143.311 90.3409C147.228 94.9009 151.287 99.6096 155.411 101.964C159.983 104.566 163.055 105.417 165.913 105.417C168.041 105.417 170.062 104.938 172.472 104.368C173.201 104.434 173.971 104.467 174.783 104.467C183.421 104.467 196.721 101.055 207.604 98.263C210.884 97.4204 213.973 96.6274 216.673 95.9913C216.789 95.9665 216.888 95.9004 216.954 95.8096C220.027 91.7948 218.983 82.9391 216.59 75.9422Z" fill="#335460"/>
<path d="M174.791 104.616C173.938 104.616 173.126 104.583 172.372 104.517C162.724 103.624 148.164 86.7639 137.646 72.7865L137.025 71.9687C131.062 64.0383 128.346 60.42 126.424 59.9987C125.579 59.8087 122.06 59.6435 118.324 59.47C112.328 59.1891 105.529 58.867 103.682 58.2557C101.901 57.6609 100.336 56.3474 99.309 54.9431C94.5717 55.1331 90.7951 53.7122 88.9317 51.0852C87.6894 49.3339 87.4409 47.2026 88.2526 45.2365C88.3519 44.9887 88.6004 44.7987 88.8737 44.84C89.8758 44.8896 95.0438 45.0631 101.04 45.2613C109.107 45.5257 119.136 45.8561 124.13 46.0709C132.313 46.4178 144.578 52.5887 151.162 56.2318C152.446 56.9422 154.757 58.7926 157.672 61.1304C165.084 67.07 176.29 76.0413 182.924 76.2396C190.104 76.4626 196.871 72.4726 203.405 68.6231C205.335 67.4913 207.157 66.4174 208.987 65.4426C209.128 65.3683 209.293 65.3518 209.451 65.3931C211.977 66.0622 214.693 69.9944 216.722 75.9009C219.132 82.9391 220.176 91.8526 217.07 95.9004C216.979 96.0161 216.855 96.0987 216.706 96.1318C214.014 96.7678 210.917 97.5609 207.637 98.4035C196.755 101.196 183.445 104.616 174.783 104.616H174.791ZM100.212 54.0178C101.04 55.2322 102.406 56.4796 104.096 57.0413C105.777 57.6031 112.775 57.9252 118.399 58.1896C122.515 58.3796 125.77 58.5365 126.714 58.7431C129.091 59.2718 131.534 62.5183 138.06 71.1922L138.681 72.0183C153.324 91.4891 165.333 102.583 172.505 103.244C180.721 104.004 195.479 100.213 207.339 97.1726C210.527 96.3548 213.55 95.5783 216.201 94.9505C218.834 91.1918 217.716 82.7078 215.53 76.3139C213.766 71.1674 211.372 67.45 209.368 66.69C207.637 67.6152 205.906 68.6313 204.076 69.7135C197.384 73.6539 190.469 77.7265 182.907 77.5035C175.851 77.2887 164.447 68.1522 156.902 62.1135C154.028 59.817 151.759 57.9913 150.566 57.3387C144.081 53.7452 132.014 47.6652 124.097 47.3348C119.111 47.12 109.082 46.7896 101.023 46.5252C95.4662 46.3435 90.9525 46.1948 89.3126 46.1287C88.8654 47.5661 89.1056 49.0778 90 50.3418C91.5156 52.4813 94.6131 53.6791 98.5719 53.6791C98.2986 53.1009 98.1329 52.5391 98.0915 52.0352C98.075 51.8287 98.1661 51.6304 98.3234 51.4983C99.9715 50.1435 104.295 50.2013 109.305 50.2674C111.351 50.2922 113.471 50.3252 115.467 50.2509C123.6 49.97 129.629 50.8126 132.321 51.6304C135.244 52.5144 144.123 59.8004 144.495 60.1061C144.769 60.3291 144.81 60.7339 144.578 61.0065C144.355 61.2791 143.949 61.3204 143.684 61.0891C141.174 59.0239 134.168 53.5222 131.948 52.8448C129.356 52.0518 123.492 51.2339 115.517 51.5231C113.488 51.5891 111.351 51.5644 109.289 51.5396C105.206 51.49 100.99 51.4322 99.4166 52.2913C99.5243 52.7539 99.7645 53.2991 100.121 53.8609C100.162 53.9104 100.195 53.96 100.228 54.0178H100.212Z" fill="white"/>
<path d="M95.4578 63.8814C91.5321 63.8814 89.1883 61.5436 88.5754 60.5522C88.4678 60.3705 88.1282 59.8335 88.4347 59.3792C88.5837 59.1562 88.8984 58.9414 90.4223 57.9335C92.087 56.8349 94.5964 55.1744 96.2031 53.7453C96.4682 53.514 96.8657 53.5305 97.1059 53.7949C97.3378 54.0592 97.3212 54.464 97.0562 54.6953C95.3749 56.1905 92.8241 57.8757 91.1263 58.9992C90.5797 59.3627 90.0165 59.7344 89.7018 59.9575C90.265 60.8331 92.6667 63.0057 96.5344 62.5514C101.429 61.9731 105.868 57.6692 105.91 57.6196C106.158 57.3718 106.564 57.3718 106.812 57.6196C107.061 57.8675 107.061 58.2722 106.812 58.5201C106.622 58.7101 102.025 63.1709 96.6918 63.807C96.2694 63.8566 95.8553 63.8814 95.466 63.8814H95.4578Z" fill="white"/>
<path d="M165.971 105.549C163.08 105.549 159.925 104.707 155.345 102.096C151.196 99.7335 147.137 95.0083 143.203 90.4483C139.8 86.4996 136.594 82.7657 134.06 81.5844C131.89 80.5766 129.025 79.4614 126.259 78.3957C121.024 76.3718 117.778 75.0666 116.85 74.067C116.204 73.3731 114.241 71.2501 114.929 69.3335C115.418 67.9787 117.016 67.1279 119.815 66.7314C127.112 65.7235 139.087 72.6048 140.147 73.9761C140.363 74.257 140.313 74.6535 140.031 74.8683C139.75 75.0831 139.352 75.0335 139.137 74.7527C138.4 73.7944 126.979 66.9957 119.997 67.9953C117.77 68.3092 116.436 68.9205 116.13 69.7631C115.848 70.5479 116.403 71.7127 117.786 73.2079C118.581 74.067 122.904 75.7357 126.714 77.2144C129.505 78.2966 132.387 79.4118 134.599 80.4361C137.373 81.7331 140.677 85.5579 144.164 89.6222C147.841 93.8931 152.016 98.7422 155.966 100.997C163.585 105.343 166.666 104.607 172.265 103.269C172.613 103.187 172.952 103.401 173.035 103.74C173.118 104.079 172.903 104.426 172.563 104.508C170.178 105.078 168.149 105.566 165.962 105.566L165.971 105.549Z" fill="white"/>
<path d="M135.418 50.1022C135.336 50.1022 135.253 50.0857 135.178 50.0526L134.872 49.9287C124.428 45.6826 118.449 43.5926 117.107 43.6339C115.07 43.7496 108.32 44.8152 105.173 46.5665C104.866 46.7318 104.477 46.6244 104.303 46.3187C104.129 46.0131 104.245 45.6248 104.552 45.4513C107.931 43.5844 114.854 42.4857 117.041 42.3618C119.086 42.2213 127.907 45.7157 135.36 48.7474L135.667 48.8713C135.99 49.0035 136.147 49.3752 136.015 49.6974C135.915 49.9452 135.675 50.0939 135.427 50.0939L135.418 50.1022Z" fill="white"/>
<path d="M102.15 65.1369C100.005 65.1369 97.843 64.6082 96.2943 63.7326C95.9879 63.5591 95.8802 63.1708 96.0541 62.8652C96.2281 62.5595 96.6173 62.4604 96.9237 62.6256C99.4332 64.063 104.112 64.4017 106.605 62.7248C109.438 60.8082 113.513 58.0822 113.513 58.0822L114.225 59.1395C114.225 59.1395 110.158 61.8656 107.326 63.7739C105.918 64.7239 104.038 65.1369 102.15 65.1369Z" fill="white"/>
<path d="M129.952 145.036C128.652 143.202 126.391 141.996 123.517 141.5C125.083 140.245 127.095 138.915 128.503 137.981C129.985 136.998 130.317 136.775 130.449 136.569C130.673 136.23 130.474 135.825 130.3 135.544C129.646 134.487 126.996 131.868 122.482 132.339C119.592 130.77 114.664 130.406 111.757 132.364C109.223 134.074 105.703 136.437 104.99 136.907C103.558 136.833 102.092 136.767 100.667 136.701C96.9321 136.527 93.3957 136.362 92.5427 136.172C90.5716 135.734 87.8468 132.108 81.8755 124.161L81.6519 123.864C85.4202 126.086 92.3274 129.258 97.6113 129.258C98.1496 129.258 98.6631 129.225 99.16 129.159C101.91 128.779 103.467 127.953 103.939 126.647C104.593 124.814 102.68 122.74 102.05 122.063C101.073 121.005 97.1889 119.502 92.6918 117.767C89.9256 116.693 87.06 115.586 84.8819 114.578C82.3227 113.389 79.1093 109.647 75.6972 105.681C71.7715 101.121 67.7216 96.4126 63.5889 94.0583C55.6134 89.5148 52.1764 90.3079 46.5281 91.6544C38.1053 90.9192 23.2972 94.7109 11.3877 97.7674C8.11633 98.61 5.01888 99.4031 2.32724 100.031C2.21129 100.056 2.11191 100.122 2.04565 100.213C-1.02696 104.227 0.0165708 113.083 2.41006 120.08C4.42258 125.945 7.09765 129.844 9.58224 130.505C9.69819 130.538 9.8307 130.522 9.94665 130.464C11.777 129.497 13.599 128.424 15.5204 127.292C22.0797 123.426 28.8461 119.427 36.0763 119.659C42.7515 119.865 53.9819 128.853 61.4108 134.801C64.326 137.139 66.6284 138.981 67.9038 139.691C71.7632 141.831 77.5855 144.83 83.3746 147.019C83.3746 147.019 83.3828 147.019 83.3911 147.027L83.6976 147.151C91.0188 150.125 99.6569 153.52 101.843 153.52C101.876 153.52 101.91 153.52 101.943 153.52C104.096 153.404 110.838 152.339 114.233 150.513C115.492 150.554 116.734 150.596 117.927 150.637C123.931 150.835 129.116 151.009 130.118 151.058C130.126 151.058 130.135 151.058 130.143 151.058C130.342 151.058 130.524 150.934 130.607 150.753C131.402 148.836 131.153 146.754 129.944 145.036H129.952Z" fill="#335460"/>
<path d="M130.151 151.199C130.151 151.199 130.126 151.199 130.118 151.199C129.116 151.149 123.948 150.976 117.96 150.777C109.893 150.513 99.8639 150.183 94.8699 149.968C86.6873 149.621 74.4217 143.45 67.8375 139.807C66.5538 139.097 64.2432 137.246 61.3279 134.908C53.9156 128.969 42.7101 119.997 36.0762 119.799C28.9123 119.576 22.1294 123.566 15.5949 127.416C13.6652 128.547 11.8515 129.621 10.0129 130.588C9.87207 130.662 9.70643 130.679 9.54907 130.637C7.02307 129.968 4.30659 126.036 2.27751 120.13C-0.132543 113.091 -1.17607 104.178 1.92967 100.13C2.02077 100.014 2.145 99.9317 2.29407 99.8987C4.98571 99.2626 8.08317 98.4696 11.3628 97.627C23.322 94.5539 38.1964 90.7457 46.6357 91.5222C56.2842 92.4144 70.8439 109.275 81.362 123.252L81.9914 124.087C87.9462 132.009 90.6626 135.627 92.5841 136.048C93.4288 136.238 96.9569 136.403 100.684 136.577C106.68 136.858 113.479 137.18 115.326 137.791C117.107 138.386 118.681 139.7 119.699 141.104C124.445 140.922 128.213 142.335 130.077 144.962C131.319 146.713 131.567 148.844 130.756 150.81C130.656 151.05 130.424 151.207 130.168 151.207L130.151 151.199ZM35.4965 118.519C35.7035 118.519 35.9023 118.519 36.1093 118.527C43.1656 118.742 54.5698 127.878 62.123 133.917C64.9968 136.222 67.2661 138.039 68.4587 138.692C74.9435 142.285 87.002 148.365 94.9278 148.696C99.9136 148.91 109.943 149.241 118.001 149.505C123.559 149.687 128.072 149.836 129.712 149.902C130.159 148.473 129.919 146.953 129.025 145.689C127.509 143.549 124.412 142.351 120.453 142.351C120.726 142.93 120.892 143.491 120.933 143.995C120.95 144.202 120.859 144.4 120.701 144.532C119.053 145.887 114.73 145.829 109.719 145.763C107.674 145.738 105.554 145.713 103.558 145.78C95.4248 146.06 89.3955 145.218 86.7039 144.4C83.7803 143.516 74.9021 136.23 74.5294 135.924C74.2561 135.701 74.2147 135.297 74.4465 135.024C74.6702 134.751 75.076 134.718 75.341 134.941C77.8504 137.007 84.857 142.508 87.0765 143.186C89.6688 143.979 95.5324 144.797 103.508 144.507C105.537 144.441 107.674 144.458 109.736 144.491C113.819 144.549 118.035 144.598 119.608 143.739C119.5 143.277 119.26 142.731 118.904 142.17C118.863 142.12 118.83 142.07 118.796 142.013C117.968 140.798 116.602 139.551 114.912 138.989C113.231 138.427 106.233 138.105 100.609 137.841C96.4931 137.651 93.2383 137.494 92.2942 137.287C89.9173 136.759 87.4741 133.512 80.9562 124.847L80.3267 124.012C65.6842 104.541 53.6754 93.447 46.5032 92.7861C38.2875 92.0178 23.529 95.8178 11.6693 98.8578C8.4807 99.6757 5.45778 100.452 2.80755 101.08C0.17389 104.839 1.29196 113.323 3.47839 119.717C5.24245 124.863 7.63594 128.58 9.64018 129.34C11.3711 128.415 13.102 127.399 14.9324 126.317C21.442 122.484 28.1752 118.519 35.4965 118.519Z" fill="white"/>
<path d="M122.366 142.45C122.192 142.45 122.018 142.376 121.886 142.236C121.654 141.971 121.67 141.567 121.935 141.335C123.617 139.84 126.176 138.147 127.865 137.031C128.412 136.668 128.967 136.296 129.29 136.073C128.727 135.197 126.333 133.033 122.457 133.479C117.563 134.057 113.132 138.361 113.082 138.411C112.834 138.659 112.428 138.659 112.179 138.411C111.931 138.163 111.931 137.758 112.179 137.51C112.37 137.32 116.966 132.86 122.3 132.223C126.971 131.662 129.737 134.388 130.408 135.478C130.516 135.66 130.855 136.197 130.549 136.651C130.4 136.874 130.085 137.089 128.561 138.097C126.896 139.196 124.387 140.856 122.772 142.285C122.648 142.393 122.499 142.45 122.35 142.45H122.366Z" fill="white"/>
<path d="M97.6194 129.407C90.2981 129.407 79.8297 123.335 78.8525 122.054C78.6371 121.773 78.6868 121.377 78.9684 121.162C79.25 120.947 79.6475 120.997 79.8629 121.278C80.6 122.236 92.0208 129.018 99.0025 128.035C101.23 127.721 102.564 127.11 102.87 126.267C103.152 125.474 102.597 124.318 101.214 122.823C100.419 121.963 96.0955 120.295 92.2858 118.816C89.4948 117.734 86.6127 116.619 84.4014 115.594C81.6269 114.297 78.3224 110.473 74.8357 106.408C71.1585 102.137 66.9844 97.2883 63.0339 95.033C55.4145 90.6878 52.3336 91.4313 46.735 92.7613C46.3954 92.8522 46.0476 92.6291 45.9648 92.2904C45.882 91.9517 46.0973 91.6048 46.4368 91.5222C51.9609 90.2004 55.6133 89.333 63.6716 93.9261C67.8209 96.2887 71.879 101.014 75.813 105.574C79.2169 109.523 82.422 113.257 84.9563 114.438C87.1261 115.446 89.9917 116.561 92.7579 117.627C97.9921 119.65 101.239 120.956 102.166 121.955C102.812 122.649 104.775 124.772 104.088 126.689C103.599 128.043 102.001 128.894 99.2012 129.291C98.7043 129.357 98.1826 129.39 97.6442 129.39L97.6194 129.407Z" fill="white"/>
<path d="M101.852 153.66C99.6237 153.66 90.9774 150.257 83.6395 147.275L83.3331 147.151C83.0101 147.019 82.8528 146.647 82.9853 146.325C83.1178 145.994 83.4905 145.837 83.8135 145.978L84.1199 146.102C94.5635 150.348 100.543 152.43 101.885 152.388C103.922 152.273 110.672 151.207 113.819 149.456C114.125 149.29 114.515 149.398 114.689 149.703C114.863 150.009 114.747 150.397 114.44 150.571C111.061 152.438 104.137 153.536 101.959 153.66C101.926 153.66 101.893 153.66 101.86 153.66H101.852Z" fill="white"/>
<path d="M105.479 137.948L104.767 136.891C104.767 136.891 108.833 134.165 111.666 132.257C114.664 130.233 119.79 130.646 122.697 132.298C123.004 132.471 123.111 132.86 122.937 133.165C122.764 133.471 122.374 133.57 122.068 133.405C119.55 131.967 114.879 131.629 112.386 133.306C109.554 135.222 105.479 137.948 105.479 137.948Z" fill="white"/>
<path d="M40.1177 146.473L33.3182 150.761L32.8793 150.075L38.3205 146.647L32.0594 146.87L31.844 146.531L34.7013 141.005L29.2932 144.417L28.8542 143.731L35.6537 139.443L36.0264 140.038L32.8544 146.16L39.745 145.895L40.1177 146.49V146.473Z" fill="white"/>
<path d="M43.2151 159.476L40.2419 156.13L37.9974 156.833L37.4094 156.172L45.8653 153.586L46.4202 154.214L42.8424 162.285L42.2461 161.616L43.2151 159.476ZM43.5215 158.79L45.4761 154.486L40.9624 155.907L43.5215 158.79Z" fill="white"/>
<path d="M48.1925 166.977C47.9027 166.473 47.7453 166.01 47.7205 165.581L48.3996 165.3C48.4327 165.713 48.5735 166.134 48.822 166.589C49.0704 167.035 49.3934 167.431 49.7827 167.762C50.3293 168.224 50.8262 168.48 51.2734 168.505C51.7206 168.538 52.0768 168.398 52.3501 168.076C52.5571 167.828 52.6482 167.572 52.6234 167.299C52.5985 167.026 52.5157 166.762 52.3666 166.498C52.2176 166.233 51.994 165.895 51.6875 165.473C51.3231 164.961 51.0581 164.54 50.8759 164.201C50.6937 163.863 50.6026 163.499 50.5943 163.111C50.5943 162.723 50.7434 162.343 51.0664 161.963C51.3314 161.657 51.6544 161.442 52.0271 161.326C52.4081 161.211 52.8304 161.227 53.2942 161.36C53.758 161.492 54.2466 161.773 54.7436 162.202C55.0914 162.5 55.3978 162.838 55.6463 163.218C55.903 163.598 56.077 163.978 56.1763 164.358L55.5221 164.689C55.4061 164.3 55.2405 163.945 55.0252 163.606C54.8098 163.268 54.5531 162.987 54.2798 162.747C53.7414 162.293 53.2528 162.053 52.8056 162.029C52.3584 162.004 51.994 162.153 51.7206 162.483C51.5136 162.731 51.4142 162.987 51.4391 163.26C51.4639 163.532 51.5467 163.805 51.7041 164.077C51.8614 164.35 52.0933 164.689 52.3915 165.102C52.7476 165.597 53.0126 166.01 53.2031 166.357C53.3936 166.704 53.4847 167.06 53.493 167.448C53.5013 167.836 53.3439 168.208 53.0209 168.58C52.7559 168.885 52.4329 169.1 52.0519 169.207C51.671 169.323 51.2403 169.306 50.7765 169.158C50.3127 169.009 49.8241 168.728 49.3189 168.299C48.8634 167.91 48.4907 167.464 48.2008 166.969L48.1925 166.977Z" fill="white"/>
<path d="M57.9323 174.486C57.5762 174.032 57.3609 173.586 57.2781 173.164L57.9158 172.793C57.9986 173.197 58.1974 173.602 58.5121 174.015C58.8268 174.428 59.1912 174.775 59.6219 175.048C60.2265 175.436 60.7482 175.618 61.1954 175.593C61.6427 175.568 61.9822 175.378 62.2058 175.023C62.3798 174.75 62.4377 174.486 62.3798 174.222C62.3218 173.957 62.1976 173.701 62.0154 173.462C61.8332 173.222 61.5599 172.917 61.2037 172.537C60.7813 172.082 60.4501 171.694 60.2265 171.38C60.0028 171.066 59.862 170.719 59.8041 170.339C59.7461 169.959 59.8538 169.554 60.1188 169.141C60.3424 168.803 60.6323 168.547 60.9884 168.381C61.3528 168.216 61.7669 168.175 62.2555 168.249C62.7442 168.324 63.2577 168.538 63.8043 168.894C64.1935 169.141 64.5331 169.439 64.8395 169.786C65.1377 170.133 65.3696 170.48 65.5186 170.843L64.9058 171.256C64.7401 170.884 64.5331 170.554 64.2681 170.257C64.003 169.959 63.7214 169.703 63.415 169.505C62.8187 169.125 62.3052 168.951 61.858 168.984C61.4108 169.017 61.0712 169.216 60.8393 169.579C60.6654 169.852 60.6074 170.116 60.6654 170.389C60.7234 170.661 60.8476 170.917 61.0381 171.165C61.2286 171.413 61.5019 171.719 61.8497 172.091C62.2638 172.528 62.5868 172.908 62.8187 173.222C63.0506 173.536 63.1914 173.883 63.2494 174.263C63.3073 174.643 63.1997 175.031 62.9347 175.444C62.711 175.783 62.4212 176.039 62.0568 176.196C61.6924 176.353 61.27 176.394 60.7813 176.32C60.2927 176.246 59.7792 176.023 59.2243 175.667C58.7191 175.345 58.2968 174.957 57.9406 174.494L57.9323 174.486Z" fill="white"/>
<path d="M73.552 180.83L69.4856 178.955L67.705 180.5L66.9016 180.128L73.61 174.379L74.3719 174.726L74.3388 183.548L73.5272 183.176L73.552 180.83ZM73.552 180.079L73.61 175.362L70.0488 178.468L73.552 180.079Z" fill="white"/>
<path d="M87.1179 183.515L87.9047 183.747L87.0517 186.687C86.5962 186.902 86.0992 187.018 85.5609 187.043C85.0226 187.067 84.476 187.001 83.9294 186.844C83.1591 186.621 82.5131 186.25 81.9914 185.737C81.4696 185.225 81.1218 184.614 80.9396 183.912C80.7574 183.21 80.7822 182.491 80.9975 181.747C81.2129 181.004 81.5856 180.384 82.1073 179.889C82.6291 179.393 83.2585 179.063 83.9708 178.906C84.683 178.749 85.4367 178.782 86.2152 179.005C86.8032 179.17 87.3167 179.426 87.7556 179.757C88.1946 180.087 88.5259 180.484 88.7577 180.946L88.1035 181.318C87.6645 180.541 86.9771 180.013 86.033 179.74C85.4118 179.558 84.799 179.534 84.2192 179.666C83.6395 179.798 83.126 180.062 82.7036 180.467C82.273 180.872 81.9748 181.376 81.8009 181.979C81.627 182.582 81.6104 183.168 81.7595 183.73C81.9086 184.3 82.1901 184.796 82.6042 185.217C83.0266 185.638 83.5484 185.944 84.1695 186.126C84.9646 186.357 85.6934 186.349 86.3643 186.117L87.1179 183.524V183.515Z" fill="white"/>
<path d="M100.129 189.166L100.029 189.893L94.3894 189.133L95.4661 181.186L100.932 181.921L100.833 182.648L96.2114 182.028L95.8305 184.853L99.9549 185.407L99.8555 186.126L95.7311 185.572L95.3335 188.53L100.129 189.174V189.166Z" fill="white"/>
<path d="M116.27 182.739L113.454 182.978L113.396 182.251L119.873 181.706L119.939 182.441L117.123 182.681L117.745 189.942L116.9 190.016L116.279 182.755L116.27 182.739Z" fill="white"/>
<path d="M131.907 179.319L133.729 187.133L132.909 187.323L132.064 183.722L127.161 184.862L128.006 188.463L127.178 188.653L125.356 180.839L126.184 180.649L126.996 184.127L131.898 182.987L131.087 179.5L131.907 179.31V179.319Z" fill="white"/>
<path d="M146.367 181.888L146.64 182.565L141.356 184.672L138.375 177.22L143.493 175.18L143.767 175.857L139.435 177.584L140.495 180.236L144.355 178.699L144.62 179.368L140.76 180.905L141.87 183.672L146.359 181.88L146.367 181.888Z" fill="white"/>
<path d="M157.987 176.609L155.105 175.296C154.939 175.42 154.757 175.535 154.566 175.651L152.694 176.733L153.97 178.939L153.233 179.36L149.199 172.421L151.808 170.917C152.694 170.405 153.514 170.215 154.268 170.347C155.013 170.48 155.61 170.917 156.04 171.661C156.355 172.206 156.479 172.743 156.421 173.272C156.363 173.809 156.123 174.304 155.709 174.759L158.79 176.155L157.987 176.617V176.609ZM155.494 173.668C155.684 173.156 155.618 172.619 155.295 172.074C154.972 171.512 154.533 171.19 153.995 171.099C153.456 171.008 152.844 171.165 152.148 171.562L150.301 172.627L152.322 176.105L154.169 175.04C154.856 174.643 155.295 174.189 155.485 173.668H155.494Z" fill="white"/>
<path d="M167.345 167.225L163.834 170.009L164.414 172.289L163.718 172.842L161.589 164.276L162.244 163.755L170.128 167.754L169.424 168.307L167.329 167.225H167.345ZM166.674 166.878L162.476 164.705L163.652 169.274L166.674 166.878Z" fill="white"/>
<path d="M173.375 154.214C174.128 154.123 174.824 154.371 175.445 154.957C176.075 155.544 176.364 156.213 176.323 156.973C176.282 157.725 175.909 158.477 175.205 159.228L173.731 160.798L175.586 162.533L175.006 163.152L169.134 157.667L171.196 155.478C171.9 154.734 172.629 154.313 173.383 154.222L173.375 154.214ZM175.511 157.047C175.545 156.502 175.329 156.015 174.865 155.577C174.393 155.131 173.88 154.949 173.342 155.015C172.803 155.081 172.257 155.412 171.71 155.99L170.252 157.543L173.184 160.286L174.642 158.733C175.188 158.154 175.478 157.593 175.511 157.047Z" fill="white"/>
<path d="M177.193 148.299L177.698 147.614L184.174 152.372L183.669 153.049L177.193 148.291V148.299Z" fill="white"/>
<path d="M188.588 145.375C188.149 145.755 187.719 145.994 187.296 146.094L186.899 145.482C187.296 145.375 187.694 145.16 188.091 144.83C188.489 144.499 188.812 144.119 189.069 143.673C189.425 143.054 189.582 142.517 189.533 142.079C189.483 141.633 189.276 141.31 188.911 141.104C188.63 140.947 188.365 140.897 188.1 140.972C187.835 141.046 187.586 141.178 187.354 141.368C187.123 141.558 186.833 141.847 186.468 142.219C186.029 142.665 185.665 143.012 185.358 143.252C185.052 143.491 184.712 143.648 184.331 143.731C183.951 143.805 183.545 143.723 183.114 143.475C182.766 143.268 182.493 142.996 182.311 142.64C182.128 142.294 182.062 141.872 182.112 141.393C182.162 140.906 182.352 140.385 182.675 139.815C182.907 139.419 183.18 139.064 183.512 138.741C183.843 138.419 184.182 138.18 184.539 138.014L184.986 138.601C184.621 138.783 184.298 139.014 184.017 139.287C183.735 139.559 183.495 139.857 183.313 140.179C182.965 140.79 182.816 141.31 182.874 141.757C182.932 142.203 183.147 142.525 183.52 142.74C183.801 142.897 184.075 142.946 184.34 142.872C184.605 142.797 184.862 142.665 185.093 142.459C185.334 142.252 185.623 141.971 185.98 141.6C186.402 141.162 186.766 140.823 187.065 140.575C187.363 140.327 187.711 140.17 188.083 140.096C188.456 140.022 188.862 140.104 189.284 140.352C189.632 140.559 189.905 140.831 190.079 141.187C190.261 141.542 190.319 141.963 190.261 142.45C190.203 142.938 190.013 143.467 189.682 144.037C189.383 144.549 189.011 145.003 188.572 145.375H188.588Z" fill="white"/>
<path d="M188.017 130.869L186.932 133.471L186.253 133.19L188.738 127.193L189.417 127.473L188.332 130.076L195.082 132.86L194.759 133.644L188.009 130.86L188.017 130.869Z" fill="white"/>
<path d="M111.235 120.865C110.837 120.865 110.49 120.584 110.415 120.187L107.177 102.782L89.7267 99.5518C89.3375 99.4775 89.0476 99.1388 89.0476 98.7422C89.0476 98.3457 89.3292 97.9988 89.7267 97.9327L107.177 94.7027L110.415 77.297C110.49 76.9005 110.829 76.6196 111.235 76.6196C111.641 76.6196 111.98 76.9005 112.055 77.297L115.293 94.7027L132.743 97.9327C133.133 98.007 133.422 98.3457 133.422 98.7422C133.422 99.1388 133.141 99.4857 132.743 99.5518L115.293 102.782L112.055 120.187C111.98 120.584 111.641 120.865 111.235 120.865ZM94.4309 98.734L108.046 101.254C108.386 101.32 108.651 101.576 108.709 101.914L111.235 115.495L113.761 101.914C113.827 101.576 114.084 101.311 114.424 101.254L128.039 98.734L114.424 96.2144C114.084 96.1483 113.819 95.8922 113.761 95.5535L111.235 81.9727L108.709 95.5535C108.643 95.8922 108.386 96.1566 108.046 96.2144L94.4309 98.734Z" fill="#E8BB2A"/>
<path d="M104.634 96.8339C104.369 96.8339 104.113 96.71 103.947 96.4705L95.4496 84.137C95.226 83.8066 95.2674 83.3687 95.549 83.0796C95.8306 82.7987 96.2778 82.7574 96.6091 82.9805L108.974 91.4561C109.355 91.7122 109.446 92.2326 109.189 92.6044C108.933 92.9761 108.411 93.0752 108.038 92.8192L99.3587 86.8713L105.322 95.5287C105.578 95.9087 105.487 96.4209 105.106 96.677C104.966 96.7761 104.8 96.8257 104.634 96.8257V96.8339Z" fill="#E8BB2A"/>
<path d="M96.137 114.628C95.9217 114.628 95.7063 114.545 95.549 114.388C95.2674 114.107 95.226 113.661 95.4496 113.331L103.947 100.997C104.204 100.617 104.725 100.527 105.098 100.783C105.471 101.039 105.57 101.559 105.313 101.931L99.3504 110.588L108.03 104.64C108.411 104.384 108.924 104.475 109.181 104.855C109.438 105.235 109.347 105.747 108.966 106.004L96.6008 114.479C96.46 114.578 96.2943 114.628 96.1287 114.628H96.137Z" fill="#E8BB2A"/>
<path d="M126.333 114.628C126.167 114.628 126.01 114.578 125.861 114.479L113.496 106.004C113.115 105.747 113.024 105.227 113.281 104.855C113.537 104.475 114.059 104.384 114.432 104.64L123.111 110.588L117.148 101.931C116.892 101.551 116.983 101.039 117.364 100.783C117.745 100.527 118.258 100.617 118.515 100.997L127.012 113.331C127.236 113.661 127.194 114.099 126.913 114.388C126.755 114.545 126.54 114.628 126.325 114.628H126.333Z" fill="#E8BB2A"/>
<path d="M117.844 96.834C117.678 96.834 117.521 96.7844 117.372 96.6853C116.991 96.4292 116.9 95.9088 117.157 95.537L123.12 86.8796L114.44 92.8275C114.059 93.0836 113.546 92.9927 113.289 92.6127C113.032 92.2327 113.123 91.7205 113.504 91.4644L125.869 82.9888C126.201 82.7657 126.64 82.807 126.929 83.0879C127.211 83.3688 127.252 83.8149 127.029 84.1453L118.531 96.4788C118.374 96.7101 118.109 96.8422 117.844 96.8422V96.834Z" fill="#E8BB2A"/>
</g>
<defs>
<clipPath id="clip0_48_352">
<rect width="219" height="190" fill="white"/>
</clipPath>
</defs>
</svg>
